<svg width="528" height="778" viewBox="0 0 528 778" fill="none" xmlns="http://www.w3.org/2000/svg">
<path d="M320.025 443.761C325.138 443.723 330.214 442.667 334.863 440.442C348.707 433.847 357.715 418.119 356.673 402.217C356.359 397.105 355.1 391.856 352.85 386.14C349.11 376.752 343.897 369.269 337.268 363.928C327.183 355.781 312.828 352.308 298.913 354.656C286.789 356.713 274.988 362.869 264.755 372.477C253.398 383.165 247.683 395.55 248.589 407.334C248.83 410.731 251.817 413.285 255.211 413.042C258.605 412.8 261.157 409.81 260.916 406.413C260.097 395.609 268.276 386.208 273.234 381.542C281.66 373.604 291.23 368.551 300.944 366.926C311.413 365.182 322.094 367.659 329.462 373.614C334.402 377.603 338.396 383.343 341.324 390.724C343.114 395.176 344.049 399.18 344.321 402.996C344.998 413.826 338.791 424.85 329.545 429.259C320.151 433.74 307.674 430.955 301.696 423.038C297.681 417.755 296.626 410.463 299.012 404.824C301.398 399.184 307.533 395.288 313.262 395.755C318.894 396.253 323.954 401.319 324.151 406.598C324.246 409.099 323.067 411.828 321.02 413.879C319.141 415.724 316.788 416.716 314.592 416.627C311.167 416.45 308.294 419.117 308.117 422.546C307.939 425.974 310.603 428.849 314.028 429.025C319.649 429.292 325.411 426.999 329.764 422.706C334.284 418.206 336.812 412.219 336.585 406.199C336.2 394.629 326.23 384.426 314.366 383.435C303.41 382.53 292.187 389.461 287.662 399.993C283.525 409.752 285.184 421.738 291.855 430.585C298.301 439.077 309.163 443.791 320.025 443.761Z" fill="#968787"/>
<path d="M256.237 636.555L298.779 636.351C300.485 636.323 302.103 635.638 303.253 634.378C304.403 633.118 305.013 631.456 304.934 629.787C304.915 629.6 303.94 612.924 304.786 594.165C305.454 579.157 300.439 567.788 297.21 562.159C304.079 551.646 306.729 541.348 305.174 531.496C303.372 520.18 296.087 509.862 283.454 500.883C269.074 490.637 259.465 475.743 259.35 475.588C257.517 472.696 253.682 471.861 250.785 473.742C247.895 475.578 247.06 479.417 248.938 482.315C249.387 483.025 259.983 499.352 276.278 510.983C286.07 517.982 291.689 525.525 292.973 533.449C294.175 540.993 291.44 549.345 284.794 558.324C283.133 560.569 283.195 563.618 284.901 565.801C284.978 565.904 293.214 576.959 292.444 593.611C291.887 605.964 292.086 617.231 292.298 623.986L256.202 624.161C252.796 624.172 250.045 626.949 250.047 630.403C250.05 633.858 252.824 636.611 256.237 636.555Z" fill="#968787"/>
<path d="M255.92 679.156L324.057 678.858C327.463 678.847 330.214 676.07 330.211 672.616L329.939 604.37C330.426 600.71 332.585 579.886 321.819 566.942C327.283 554.382 341.153 516.336 318.021 497.63C283.577 469.723 264.916 443.701 260.921 418.066C260.402 414.674 257.241 412.371 253.853 412.891C250.465 413.411 248.163 416.576 248.681 419.967C253.131 448.8 273.266 477.34 310.221 507.27C326.48 520.416 314.768 553.757 308.874 565.471C307.579 568.046 308.233 571.134 310.404 572.97C318.928 580.153 318.479 597.128 317.612 603.081C317.566 603.396 317.52 603.712 317.564 604.041L317.802 666.525L255.834 666.801C252.427 666.811 249.676 669.588 249.679 673.043C249.74 676.413 252.514 679.166 255.92 679.156Z" fill="#968787"/>
<path d="M388.822 706.437C392.093 706.407 394.811 703.856 394.975 700.518C395.152 697.089 392.489 694.214 389.064 694.038C375.222 693.357 337.616 687.787 329.703 670.1C318.29 644.536 304.143 627 303.56 626.271C301.417 623.61 297.516 623.226 294.857 625.371C292.198 627.517 291.813 631.422 293.956 634.082C294.071 634.237 307.705 651.191 318.427 675.182C323.871 687.396 337.559 696.391 359.12 701.88C374.336 705.755 387.946 706.448 388.5 706.436C388.59 706.45 388.725 706.469 388.822 706.437Z" fill="#968787"/>
<path d="M390.619 526.397C415.435 526.281 433.53 521.134 435.115 520.674C438.382 519.723 440.266 516.267 439.316 512.997C438.366 509.727 434.914 507.842 431.647 508.794C430.88 509.004 353.383 530.92 299.5 481.069C296.982 478.768 293.054 478.887 290.755 481.407C288.455 483.927 288.573 487.859 291.09 490.16C322.999 519.678 361.432 526.52 390.619 526.397Z" fill="#968787"/>
<path d="M254.06 334.721C257.421 334.704 260.159 332.017 260.233 328.666C260.927 293.903 279.828 277.222 293.339 269.749C292.681 272.37 292.397 274.954 292.383 277.577C292.368 278.312 292.398 279.053 292.434 279.749C293.333 294.111 303.635 307.402 318.593 313.68C332.555 319.536 346.983 317.769 357.15 308.934C370.731 297.188 378.386 277.487 376.554 258.798C375.329 246.047 369.591 235.217 359.91 227.452C348.007 217.888 331.105 213.584 313.456 215.665C284.613 219.108 258.731 238.549 247.533 265.195C246.198 268.362 247.694 271.988 250.813 273.318C253.977 274.654 257.6 273.155 258.929 270.033C268.291 247.771 290.812 230.88 314.921 228.036C329.059 226.365 342.963 229.773 352.149 237.144C359.228 242.873 363.307 250.559 364.226 260.042C365.658 274.85 359.715 290.38 349.032 299.6C342.454 305.274 332.877 306.273 323.34 302.259C312.806 297.823 305.332 288.49 304.741 278.963C304.71 278.544 304.692 278.035 304.713 277.577C304.74 272.653 306.674 267.271 310.522 261.706C311.977 259.615 311.965 256.85 310.574 254.713C309.132 252.615 306.565 251.596 304.091 252.157C303.518 252.304 289.994 255.446 276.337 266.443C263.726 276.58 248.533 295.598 247.839 328.472C247.752 331.913 250.474 334.705 253.912 334.791C253.919 334.746 253.964 334.753 254.06 334.721Z" fill="#968787"/>
<path d="M459.626 468.013C459.858 468 460.044 467.982 460.276 467.969C463.69 467.592 466.158 464.543 465.775 461.171C460.78 414.297 433.665 381.241 387.422 365.478C353.143 353.806 320.828 355.822 319.482 355.903C316.088 356.145 313.497 359.084 313.738 362.481C313.98 365.878 316.915 368.47 320.309 368.228C320.631 368.228 351.826 366.325 383.769 377.288C425.529 391.615 448.96 420.266 453.493 462.422C453.799 465.69 456.497 468.017 459.626 468.013Z" fill="#968787"/>
<path d="M388.832 498.55C390.165 498.56 391.473 498.428 392.787 498.251C406.327 496.263 414.819 485.341 418.688 478.997C425.94 467.112 429.364 452.137 428.372 436.84C427.496 423.587 423.46 409.92 416.353 396.173C410.789 385.415 401.772 370.562 387.723 365.936C384.475 364.864 380.993 366.659 379.921 369.911C378.849 373.163 380.642 376.648 383.89 377.72C391.178 380.117 398.219 388.005 405.358 401.848C411.678 414.052 415.262 426.088 416.02 437.62C416.872 450.409 414.054 462.801 408.128 472.531C403.476 480.143 397.242 485.037 390.987 485.968C386.053 486.677 380.514 484.903 376.481 481.322C371.716 477.082 369.444 470.257 370.972 464.815C372.443 459.457 378.147 455.36 383.109 456.037C385.459 456.333 387.791 458.008 389.253 460.294C390.522 462.321 390.889 464.539 390.304 466.342C389.232 469.594 391.025 473.079 394.273 474.151C397.522 475.223 401.004 473.427 402.076 470.175C403.817 464.856 402.946 458.834 399.741 453.67C396.344 448.247 390.721 444.527 384.768 443.706C373.755 442.239 362.2 450.181 359.045 461.42C356.253 471.421 359.935 483.103 368.2 490.478C373.967 495.739 381.466 498.582 388.832 498.55Z" fill="#968787"/>
<path d="M377.295 525.008C379.69 524.989 382.012 523.577 383.004 521.189C384.34 518.021 382.844 514.395 379.68 513.059C370.49 509.188 360.189 504.417 354.81 496.173C352.285 492.351 350.612 487.41 349.472 480.704C348.51 474.991 348.305 470.402 348.857 466.291C350.799 451.699 364.917 439.11 379.637 438.814C394.344 438.607 408.887 450.582 411.414 465.134C411.984 468.487 415.197 470.751 418.546 470.18C421.896 469.609 424.159 466.392 423.589 463.039C420.05 442.49 400.182 426.01 379.416 426.439C358.566 426.809 339.367 443.954 336.583 464.642C335.84 470.06 336.062 475.803 337.252 482.792C338.689 491.245 340.975 497.658 344.437 502.951C351.739 514.101 363.955 519.934 374.882 524.519C375.66 524.862 376.509 525.032 377.295 525.008Z" fill="#968787"/>
<path d="M370.065 371.561C382.266 371.496 394.034 365.888 401.33 356.543C409.525 346.085 411.429 331.118 406.061 319.329C404.039 314.89 401.319 311.454 397.926 309.163C393.486 306.168 388.395 305.426 383.998 304.97C380.87 304.652 377.188 304.346 373.458 305C363.647 306.657 355.491 314.633 353.609 324.399C351.726 334.165 356.319 344.643 364.816 349.796C368.152 351.847 371.735 352.83 375.123 352.633C383.61 352.165 388.892 344.967 391.755 341.101C393.766 338.355 393.185 334.447 390.441 332.436C387.698 330.424 383.794 331.007 381.784 333.754C380.29 335.793 377.136 340.077 374.489 340.244C373.652 340.306 372.513 339.91 371.33 339.185C367.275 336.706 364.927 331.344 365.836 326.687C366.744 322.03 370.929 317.942 375.599 317.148C377.815 316.78 380.358 317.012 382.81 317.232C385.893 317.543 389.054 317.957 391.104 319.361C392.53 320.306 393.839 322.062 394.888 324.333C398.369 332.025 397.072 341.876 391.649 348.777C386.337 355.556 377.15 359.56 368.17 358.989C364.751 358.767 361.801 361.331 361.579 364.752C361.356 368.174 363.917 371.126 367.335 371.348C368.23 371.524 369.144 371.565 370.065 371.561Z" fill="#968787"/>
<path d="M301.959 230.154C302.468 230.136 303.028 230.08 303.557 229.927C313.468 227.272 322.257 220.308 327.113 211.298C331.968 202.288 332.953 191.102 329.723 181.375C327.649 175.086 324.065 170.004 319.406 166.608C314.414 162.979 308.442 161.649 303.777 160.831C299.465 160.111 294.302 159.543 289.141 160.864C280.352 163.083 273.37 170.586 271.709 179.463C270.041 188.385 273.902 197.882 281.286 203.102C285.706 206.233 290.912 207.452 295.57 206.427C301.8 205.032 306.478 199.45 306.431 193.456C307.355 192.485 307.964 191.146 308.084 189.69C308.352 186.275 305.791 183.323 302.379 183.056C300.242 182.883 298.25 183.606 296.752 185.046C293.983 187.636 294.043 191.329 294.088 193.546C294.023 193.675 293.532 194.202 292.914 194.342C291.722 194.629 290.004 194.102 288.462 193.003C285.044 190.57 283.151 185.874 283.891 181.744C284.675 177.622 288.163 173.893 292.178 172.866C295.142 172.1 298.669 172.522 301.719 173.058C305.22 173.66 309.236 174.522 312.146 176.65C314.646 178.441 316.73 181.508 317.929 185.275C320.106 191.81 319.421 199.355 316.145 205.417C312.869 211.48 306.938 216.188 300.282 217.982C296.976 218.882 295.009 222.28 295.907 225.588C296.698 228.375 299.197 230.167 301.959 230.154Z" fill="#968787"/>
<path d="M284.687 173.755C287.404 173.737 289.875 171.932 290.643 169.189C291.541 165.866 289.594 162.496 286.274 161.598C282.864 160.687 279.812 158.262 278.154 155.119C276.495 151.976 276.185 148.108 277.315 144.773C277.711 143.633 278.3 142.429 279.174 140.853C281.879 136.181 284.733 133.327 287.73 132.335C289.129 131.894 290.855 131.731 293.23 131.847C295.059 131.929 296.224 132.145 296.718 132.539C297.097 132.779 297.443 133.566 297.408 134.436C297.386 135.538 296.821 136.884 295.904 138.132C293.81 140.82 294.301 144.714 297.031 146.816C299.716 148.911 303.607 148.419 305.707 145.685C308.318 142.289 309.753 138.445 309.809 134.585C309.874 129.712 307.731 125.163 303.985 122.453C300.611 120.027 296.724 119.553 293.749 119.442C289.861 119.29 286.73 119.617 283.882 120.538C277.895 122.475 272.691 127.243 268.439 134.637C267.63 136.085 266.439 138.26 265.569 140.759C263.316 147.385 263.899 154.746 267.185 160.936C270.47 167.125 276.238 171.742 282.968 173.551C283.592 173.688 284.133 173.767 284.687 173.755Z" fill="#968787"/>
<path d="M304.383 364.48C306.869 364.474 309.204 362.972 310.164 360.486C313.214 352.503 313.884 343.482 312.066 335.111C311.672 333.396 311.08 331.145 309.837 328.938C308.075 325.872 305.262 323.389 301.443 321.497C290.886 316.275 278.014 318.729 271.48 327.264C266.425 333.851 266.05 343.375 270.525 349.922C275.571 357.289 286.04 359.643 293.42 355.1C296.348 353.316 297.228 349.483 295.447 346.552C293.665 343.622 289.837 342.742 286.908 344.526C285.141 345.604 282.04 344.784 280.751 342.892C279.277 340.697 279.519 337.14 281.335 334.779C284.23 331.01 290.82 329.99 295.964 332.581C297.507 333.359 298.618 334.257 299.137 335.116C299.541 335.819 299.802 336.871 299.999 337.728C301.327 343.771 300.838 350.285 298.619 356.041C297.419 359.228 299.012 362.822 302.196 364.023C302.884 364.354 303.643 364.51 304.383 364.48Z" fill="#968787"/>
<path d="M365.841 584.684C370.902 584.684 375.889 583.292 380.063 580.538C384.637 577.566 388.45 572.872 391.094 567.039C394.561 559.347 394.937 551.711 392.206 545.51C388.52 537.328 379.115 532.412 370.276 534.026C361.476 535.691 354.466 543.697 353.99 552.654C353.812 556.082 356.424 558.996 359.849 559.172C363.274 559.349 366.186 556.733 366.363 553.305C366.521 550.012 369.331 546.829 372.552 546.193C375.812 545.609 379.534 547.533 380.891 550.539C382.177 553.398 381.804 557.535 379.841 561.854C378.681 564.448 376.603 567.968 373.301 570.112C368.469 573.277 361.213 572.865 356.06 569.074C350.991 565.342 347.823 558.664 347.754 551.561C347.715 544.878 350.324 537.705 355.062 531.395C357.628 527.992 360.171 526.014 362.419 525.742C365.794 525.313 368.186 522.161 367.758 518.783C367.33 515.405 364.181 513.012 360.806 513.441C355.132 514.181 349.88 517.699 345.2 523.925C338.814 532.39 335.309 542.241 335.365 551.645C335.449 562.756 340.441 573.016 348.71 579.103C353.78 582.835 359.859 584.688 365.841 584.684Z" fill="#968787"/>
<path d="M378.5 686.651C386.832 686.621 393.607 681.483 396.44 672.777C397.467 669.518 395.674 666.033 392.426 664.961C389.171 663.934 385.688 665.73 384.617 668.982C383.278 673.116 380.588 674.842 376.65 674.085C371.946 673.215 367.277 668.943 367.589 663.324C368.021 656.57 371.347 653.002 377.555 652.709C386.358 652.287 397.748 659.059 399.228 668.485C399.746 671.877 402.952 674.186 406.302 673.615C409.69 673.095 411.998 669.885 411.428 666.532C409.278 653.185 394.946 639.446 376.922 640.32C364.319 640.925 355.988 649.475 355.184 662.576C354.427 675.038 364.29 684.396 374.322 686.272C375.802 686.534 377.167 686.641 378.5 686.651Z" fill="#968787"/>
<path d="M363.982 657.132C366.422 657.119 368.706 655.656 369.698 653.267C370.989 650.094 369.447 646.461 366.27 645.215C358.321 641.985 351.483 635.232 348.897 628.039C345.69 619.098 349.913 612.851 354 609.117C360.565 603.211 370.926 600.622 376.687 603.396C377.806 603.927 381.239 605.625 380.8 612.745C380.545 616.392 378.002 620.581 374.545 622.841C372.764 624.009 370.063 625.181 367.085 624.149C364.853 623.363 362.978 621.386 362.816 619.658C362.485 616.248 359.491 613.74 356.084 614.072C352.677 614.405 350.17 617.402 350.502 620.812C351.107 627.394 356.163 633.427 363.033 635.855C369.073 637.978 375.605 637.042 381.411 633.19C388.081 628.773 392.701 621.065 393.193 613.583C393.839 603.776 389.818 596.005 382.122 592.305C371.808 587.303 356.191 590.6 345.765 599.95C336.127 608.632 333.028 620.431 337.282 632.288C341.082 642.835 350.436 652.212 361.646 656.746C362.437 656.999 363.196 657.156 363.982 657.132Z" fill="#968787"/>
<path d="M123.073 730.772L387.84 729.598C391.247 729.587 393.998 726.81 393.995 723.356L393.928 704.234C401.576 700.052 415.829 687.805 414.069 655.357C411.996 617.474 413.666 558.952 413.661 558.353C413.649 558.121 413.637 557.889 413.631 557.612C413.531 556.4 411.451 527.727 434.356 520.517C445.254 517.085 454.47 507.513 460.324 493.536C470.504 469.137 472.132 425.116 446.169 374.68C414.399 312.945 287.483 84.4482 260.215 35.3887L260.193 31.7473C260.189 28.9373 258.251 26.4444 255.542 25.7735C254.519 25.5323 253.509 25.5232 252.555 25.7528C251.577 25.5182 250.566 25.5091 249.561 25.7771C246.835 26.4854 244.909 28.968 244.959 31.7846L244.981 35.4261C218.11 84.7044 93.1039 314.312 61.7987 376.346C36.2441 427.014 38.2476 471.057 48.6532 495.324C54.6266 509.274 63.916 518.778 74.8394 522.12C97.7929 529.102 95.9517 557.848 95.871 559.034C95.8381 559.259 95.8503 559.491 95.8625 559.723C95.8672 560.322 98.022 618.803 96.2701 656.727C94.7659 689.16 109.109 701.243 116.83 705.408L116.897 724.53C116.893 728.03 119.66 730.828 123.073 730.772ZM381.585 717.265L129.206 718.356L129.146 701.399C129.141 698.589 127.204 696.096 124.495 695.425C123.877 695.243 107.12 689.947 108.592 657.417C110.296 620.453 108.379 564.448 108.193 559.723C108.295 557.758 108.591 549.097 105.805 539.48C101.489 524.574 92.0016 514.534 78.389 510.386C71.0295 508.163 64.4629 501.127 59.9735 490.571C50.6746 468.815 49.1742 428.897 72.7925 382.047C102.932 322.33 220.3 106.623 252.641 47.2726C285.449 106.304 404.62 321.007 435.168 380.4C459.197 427.054 457.981 466.99 448.909 488.834C444.52 499.385 438.009 506.496 430.681 508.791C417.089 513.028 407.698 523.174 403.54 538.134C400.846 547.782 401.195 556.445 401.324 558.398C401.188 563.122 399.744 619.144 401.723 656.091C403.515 688.636 386.759 694.071 386.037 694.288C383.311 694.996 381.527 697.453 381.532 700.263L381.585 717.265Z" fill="#968787"/>
<path d="M189.187 444.32C200.049 444.291 210.88 439.421 217.28 430.866C223.912 421.977 225.479 409.954 221.232 400.263C216.684 389.791 205.352 382.936 194.397 383.919C182.553 385.003 172.671 395.353 172.368 406.915C172.228 412.928 174.76 418.915 179.312 423.355C183.711 427.588 189.454 429.852 195.07 429.519C198.502 429.328 201.093 426.389 200.896 422.999C200.707 419.563 197.823 416.933 194.384 417.168C192.156 417.304 189.815 416.319 187.921 414.477C185.866 412.474 184.651 409.763 184.697 407.237C184.828 401.914 189.852 396.797 195.494 396.283C201.188 395.731 207.345 399.576 209.833 405.234C212.283 410.841 211.264 418.154 207.314 423.473C201.374 431.404 188.894 434.33 179.506 429.923C170.201 425.574 163.885 414.614 164.495 403.788C164.725 399.999 165.632 395.986 167.39 391.498C170.264 384.088 174.189 378.304 179.101 374.276C186.42 368.25 197.058 365.655 207.58 367.326C217.292 368.879 226.923 373.828 235.393 381.694C240.376 386.334 248.629 395.688 247.928 406.501C247.706 409.922 250.266 412.875 253.685 413.096C257.103 413.318 260.053 410.754 260.276 407.332C261.076 395.521 255.233 383.202 243.803 372.603C233.548 363.095 221.685 357.038 209.502 355.079C195.562 352.864 181.284 356.449 171.254 364.659C164.671 370.055 159.478 377.589 155.852 387.008C153.64 392.719 152.414 397.975 152.174 403.098C151.284 418.995 160.414 434.648 174.329 441.143C178.978 443.34 184.119 444.365 189.187 444.32Z" fill="#968787"/>
<path d="M212.033 636.794L254.575 636.589C257.981 636.579 260.732 633.802 260.73 630.348C260.72 626.938 257.947 624.185 254.495 624.189L218.399 624.365C218.56 617.573 218.683 606.307 217.998 593.957C217.094 577.107 225.219 566.179 225.322 566.102C227.022 563.908 227.012 560.821 225.357 558.6C218.648 549.701 215.865 541.328 216.962 533.797C218.163 525.867 223.684 518.289 233.459 511.193C249.668 499.415 260.114 482.976 260.586 482.262C262.391 479.347 261.565 475.542 258.653 473.737C255.742 471.931 251.941 472.759 250.136 475.674C250.019 475.841 240.427 490.839 226.225 501.159C213.675 510.245 206.46 520.616 204.759 531.973C203.275 541.843 206.059 552.104 213.002 562.557C209.831 568.22 204.898 579.66 205.704 594.653C206.738 613.455 205.878 630.094 205.852 630.274C205.744 631.963 206.376 633.621 207.525 634.893C208.687 636.076 210.334 636.776 212.033 636.794Z" fill="#968787"/>
<path d="M187.095 679.445L255.231 679.147C258.637 679.137 261.388 676.36 261.385 672.905C261.383 669.451 258.602 666.743 255.151 666.747L193.183 667.023L192.946 604.538C192.947 604.216 192.903 603.887 192.859 603.559C191.923 597.665 191.36 580.682 199.829 573.395C201.985 571.545 202.625 568.414 201.293 565.871C195.307 554.223 183.305 521.019 199.46 507.714C236.165 477.461 256.041 448.717 260.239 419.9C260.285 419.584 260.286 419.262 260.281 418.985L258.743 34.4378C258.734 31.0284 255.96 28.2756 252.509 28.2795C249.058 28.2833 246.352 31.0668 246.355 34.5213L247.913 418.611C244.007 444.155 225.588 470.163 191.548 498.226C168.597 517.126 182.762 555.066 188.346 567.578C177.704 580.626 180.051 601.463 180.537 605.079L180.809 673.326C180.87 676.696 183.643 679.449 187.095 679.445Z" fill="#968787"/>
<path d="M122.579 707.627C122.67 707.641 122.811 707.615 122.901 707.628C123.462 707.572 137.056 706.789 152.27 702.788C173.754 697.121 187.366 688.005 192.739 675.754C203.24 651.678 216.721 634.621 216.882 634.461C219.021 631.779 218.575 627.891 215.897 625.751C213.218 623.611 209.334 624.058 207.195 626.74C206.626 627.486 192.596 645.154 181.408 670.788C173.669 688.543 136.043 694.483 122.216 695.278C118.784 695.469 116.193 698.407 116.389 701.798C116.554 705.092 119.308 707.658 122.579 707.627Z" fill="#968787"/>
<path d="M119.316 527.586C148.458 527.457 186.861 520.294 218.582 490.466C221.087 488.114 221.195 484.215 218.845 481.708C216.496 479.201 212.601 479.095 210.096 481.447C156.617 531.777 78.9618 510.562 78.164 510.354C74.8958 509.417 71.439 511.355 70.5023 514.626C69.5656 517.898 71.455 521.351 74.7683 522.294C76.3188 522.704 94.4554 527.695 119.316 527.586Z" fill="#968787"/>
<path d="M254.285 334.753C254.33 334.76 254.375 334.766 254.427 334.728C257.846 334.627 260.514 331.792 260.414 328.369C259.454 295.485 244.12 276.625 231.413 266.577C217.672 255.732 204.082 252.693 203.503 252.563C201.006 252.015 198.459 253.072 197.043 255.214C195.627 257.357 195.683 260.128 197.132 262.181C201.018 267.721 202.999 273.076 203.062 278.013C203.041 278.47 203.065 278.934 203.045 279.392C202.496 288.845 195.096 298.268 184.639 302.777C175.162 306.877 165.545 305.937 158.91 300.319C148.184 291.203 142.067 275.713 143.391 260.938C144.224 251.434 148.244 243.73 155.254 237.935C164.348 230.464 178.253 226.917 192.382 228.468C216.52 231.11 239.162 247.81 248.723 269.973C250.06 273.116 253.713 274.569 256.859 273.185C259.999 271.846 261.452 268.189 260.07 265.041C248.615 238.502 222.613 219.286 193.718 216.136C176.056 214.208 159.173 218.611 147.362 228.312C137.797 236.175 132.118 247.046 130.993 259.823C129.329 278.509 137.147 298.116 150.815 309.778C161.092 318.506 175.529 320.148 189.422 314.159C204.347 307.721 214.533 294.329 215.328 280.03C215.343 279.295 215.403 278.567 215.367 277.871C215.329 275.287 214.976 272.656 214.346 270.031C227.95 277.401 246.941 293.892 247.948 328.672C248.144 332.062 250.924 334.77 254.285 334.753Z" fill="#968787"/>
<path d="M47.5145 470.611C50.6437 470.607 53.3422 468.191 53.6218 465.008C57.8141 422.65 81.5029 393.632 124.113 378.747C156.546 367.398 188.034 368.854 188.356 368.855C191.781 369.031 194.693 366.416 194.87 362.988C195.047 359.559 192.435 356.646 189.01 356.469C187.639 356.408 154.78 354.891 120.071 367.013C73.1944 383.395 45.9576 416.87 41.3788 463.777C41.0212 467.179 43.5236 470.214 46.9288 470.526C47.1024 470.598 47.3277 470.63 47.5145 470.611Z" fill="#968787"/>
<path d="M120.839 499.761C128.25 499.736 135.67 496.81 141.396 491.611C149.614 484.15 153.164 472.416 150.334 462.471C147.095 451.222 135.49 443.407 124.494 444.982C118.529 445.818 112.962 449.612 109.591 455.062C106.402 460.216 105.612 466.272 107.373 471.549C108.465 474.793 111.982 476.549 115.224 475.456C118.466 474.362 120.221 470.841 119.129 467.597C118.516 465.803 118.89 463.555 120.151 461.528C121.594 459.205 123.955 457.523 126.255 457.213C131.234 456.511 136.947 460.567 138.47 465.901C140.025 471.331 137.836 478.151 133.116 482.437C129.14 486.049 123.584 487.865 118.667 487.194C112.398 486.327 106.153 481.503 101.417 473.905C95.4184 464.235 92.5311 451.84 93.2443 439.048C93.9153 427.494 97.3757 415.426 103.58 403.158L104.357 401.613C109.149 392.087 114.129 382.22 122.592 379.4C125.834 378.307 127.589 374.786 126.497 371.541C125.405 368.297 121.888 366.541 118.647 367.634C105.389 372.105 98.9841 384.804 93.3048 395.997L92.4695 397.625C85.4949 411.392 81.5595 425.142 80.7807 438.384C79.8864 453.682 83.4551 468.663 90.7997 480.464C94.7156 486.745 103.306 497.576 116.835 499.454C118.186 499.651 119.506 499.751 120.839 499.761Z" fill="#968787"/>
<path d="M132.597 526.113C133.383 526.089 134.233 525.937 135.02 525.591C145.915 520.915 158.095 514.998 165.294 503.796C168.696 498.443 170.962 492.049 172.287 483.584C173.395 476.607 173.592 470.833 172.816 465.424C169.888 444.779 150.512 427.772 129.696 427.595C108.796 427.359 89.1672 443.981 85.7979 464.583C85.2601 467.959 87.556 471.148 90.9284 471.686C94.3008 472.223 97.4882 469.924 98.026 466.549C100.38 451.97 114.838 439.891 129.55 439.962C144.295 440.13 158.495 452.561 160.558 467.138C161.151 471.277 160.99 475.859 160.066 481.573C158.997 488.28 157.308 493.238 154.863 497.073C149.566 505.328 139.327 510.238 130.146 514.196C127.007 515.535 125.554 519.192 126.89 522.334C127.882 524.689 130.163 526.081 132.597 526.113Z" fill="#968787"/>
<path d="M138.586 372.565C139.507 372.561 140.434 372.512 141.362 372.463C144.756 372.221 147.353 369.237 147.066 365.833C146.825 362.436 143.838 359.883 140.444 360.125C131.467 360.798 122.239 356.874 116.869 350.151C111.383 343.273 110.008 333.447 113.437 325.703C114.461 323.411 115.728 321.661 117.16 320.673C119.205 319.267 122.4 318.811 125.441 318.471C127.875 318.181 130.439 317.956 132.64 318.322C137.318 319.05 141.556 323.121 142.489 327.771C143.422 332.42 141.121 337.795 137.077 340.292C135.909 341.043 134.755 341.381 133.925 341.398C131.272 341.288 128.072 337.046 126.532 334.979C124.493 332.241 120.618 331.677 117.882 333.719C115.146 335.761 114.581 339.64 116.621 342.378C119.514 346.207 124.824 353.336 133.322 353.745C136.702 353.915 140.259 352.868 143.594 350.821C152.044 345.558 156.563 335.071 154.582 325.295C152.602 315.52 144.363 307.642 134.562 306.075C130.829 305.486 127.145 305.824 124.015 306.151C119.615 306.661 114.533 307.441 110.088 310.478C106.714 312.795 104.051 316.23 102.068 320.685C96.8501 332.497 98.8608 347.436 107.143 357.853C114.534 367.127 126.384 372.63 138.586 372.565Z" fill="#968787"/>
<path d="M205.504 230.61C208.267 230.598 210.745 228.749 211.474 225.954C212.327 222.624 210.334 219.248 207.008 218.395C200.31 216.682 194.361 212.039 191.056 205.985C187.752 199.931 187.007 192.408 189.112 185.853C190.301 182.111 192.364 179.004 194.836 177.199C197.72 175.086 201.721 174.149 205.219 173.508C208.286 172.987 211.803 172.532 214.782 173.243C218.823 174.246 222.379 177.942 223.166 182.017C223.952 186.092 222.103 190.889 218.716 193.297C217.174 194.408 215.485 194.945 214.282 194.677C213.703 194.547 213.176 194.056 213.119 193.817C213.151 191.703 213.187 187.978 210.387 185.406C208.846 183.984 206.826 183.321 204.733 183.477C201.333 183.764 198.781 186.754 199.067 190.158C199.179 191.602 199.819 192.893 200.73 193.9C200.726 199.933 205.442 205.456 211.691 206.78C216.33 207.779 221.53 206.51 225.95 203.331C233.299 198.046 237.035 188.505 235.342 179.6C233.604 170.688 226.536 163.303 217.74 161.147C212.541 159.883 207.395 160.469 203.098 161.224C198.466 162.069 192.513 163.459 187.518 167.106C182.879 170.529 179.374 175.638 177.347 181.974C174.222 191.743 175.31 202.908 180.216 211.867C185.167 220.832 194.007 227.738 203.941 230.291C204.455 230.55 204.957 230.577 205.504 230.61Z" fill="#968787"/>
<path d="M222.3 174.062C222.854 174.05 223.414 173.994 223.943 173.84C230.657 171.963 236.401 167.273 239.652 161.069C242.902 154.865 243.426 147.48 241.075 140.874C240.194 138.397 238.99 136.241 238.144 134.783C233.839 127.385 228.585 122.706 222.557 120.814C218.82 119.625 215.13 119.686 212.722 119.796C209.708 119.956 205.863 120.455 202.514 122.914C198.804 125.644 196.665 130.214 196.78 135.112C196.865 138.947 198.329 142.799 200.965 146.176C203.057 148.876 206.996 149.312 209.648 147.211C212.352 145.072 212.782 141.174 210.684 138.52C209.709 137.318 209.172 135.95 209.15 134.842C209.139 133.965 209.483 133.186 209.838 132.962C210.354 132.576 211.539 132.335 213.349 132.23C215.712 132.114 217.438 132.273 218.846 132.708C221.838 133.651 224.74 136.468 227.463 141.148C228.385 142.71 228.987 143.949 229.377 145.065C230.545 148.413 230.257 152.286 228.651 155.414C227 158.535 224.018 161.002 220.609 161.979C217.297 162.924 215.375 166.329 216.325 169.599C217.083 172.288 219.583 174.08 222.3 174.062Z" fill="#968787"/>
<path d="M204.156 364.939C204.89 364.954 205.65 364.788 206.378 364.526C209.55 363.284 211.131 359.692 209.891 356.518C207.648 350.756 207.081 344.226 208.373 338.197C208.543 337.347 208.791 336.278 209.211 335.602C209.71 334.707 210.807 333.808 212.348 333.019C217.513 330.41 224.053 331.316 226.997 335.107C228.819 337.445 229.124 341.036 227.656 343.217C226.363 345.147 223.25 345.983 221.515 344.947C218.597 343.186 214.782 344.104 213.022 347.026C211.262 349.947 212.179 353.765 215.097 355.526C222.495 360.012 232.933 357.525 237.919 350.146C242.374 343.565 241.88 334.005 236.761 327.457C230.173 318.99 217.263 316.649 206.733 321.977C202.955 323.914 200.146 326.452 198.412 329.515C197.169 331.729 196.615 333.951 196.224 335.69C194.448 344.09 195.208 353.089 198.327 361.05C199.311 363.45 201.67 364.945 204.156 364.939Z" fill="#968787"/>
<path d="M144.535 585.65C150.517 585.646 156.594 583.722 161.602 579.985C169.861 573.819 174.765 563.526 174.727 552.422C174.715 543.025 171.132 533.2 164.672 524.798C159.958 518.631 154.669 515.143 148.972 514.452C145.587 514.004 142.47 516.452 142.067 519.847C141.664 523.243 144.063 526.355 147.456 526.757C149.67 527.034 152.24 528.974 154.876 532.352C159.668 538.622 162.358 545.738 162.345 552.46C162.369 559.556 159.227 566.283 154.213 570.066C149.102 573.881 141.857 574.345 136.973 571.239C133.695 569.103 131.581 565.617 130.39 563.049C128.401 558.706 127.988 554.594 129.232 551.735C130.548 548.703 134.288 546.715 137.564 547.284C140.84 547.854 143.644 551.025 143.809 554.319C143.998 557.755 146.933 560.347 150.366 560.156C153.798 559.965 156.389 557.027 156.199 553.591C155.665 544.625 148.586 536.686 139.756 535.077C130.92 533.513 121.544 538.503 117.908 546.724C115.16 552.955 115.614 560.574 119.191 568.234C121.885 574.06 125.715 578.717 130.304 581.642C134.514 584.328 139.519 585.656 144.535 585.65Z" fill="#968787"/>
<path d="M132.701 687.732C134.034 687.742 135.438 687.578 136.81 687.318C146.803 685.365 156.604 675.878 155.745 663.457C154.85 650.339 146.42 641.88 133.84 641.383C115.826 640.601 101.563 654.504 99.5215 667.885C99.0288 671.268 101.331 674.412 104.704 674.95C108.083 675.442 111.225 673.136 111.763 669.761C113.181 660.342 124.495 653.424 133.321 653.789C139.54 654.05 142.891 657.578 143.38 664.327C143.763 669.909 139.128 674.254 134.437 675.182C130.508 675.945 127.808 674.263 126.429 670.147C125.338 666.902 121.866 665.153 118.63 666.202C115.388 667.295 113.64 670.771 114.687 674.009C117.52 682.666 124.369 687.762 132.701 687.732Z" fill="#968787"/>
<path d="M146.959 658.078C147.745 658.055 148.543 657.941 149.285 657.588C160.502 652.913 169.743 643.482 173.451 632.877C177.619 621.004 174.408 609.253 164.71 600.656C154.235 591.392 138.547 588.232 128.281 593.322C120.647 597.092 116.703 604.899 117.389 614.717C117.953 622.214 122.631 629.895 129.315 634.231C135.157 638.029 141.696 638.936 147.723 636.728C154.568 634.271 159.55 628.181 160.097 621.583C160.365 618.168 157.856 615.177 154.45 614.865C151.039 614.599 148.05 617.111 147.738 620.519C147.578 622.246 145.724 624.233 143.488 625.058C140.529 626.101 137.796 624.966 135.984 623.827C132.539 621.575 129.917 617.463 129.671 613.789C129.144 606.666 132.568 604.954 133.703 604.428C139.409 601.575 149.852 604.11 156.409 609.947C160.571 613.593 164.815 619.829 161.667 628.812C159.141 636.043 152.347 642.883 144.418 646.149C141.285 647.442 139.742 651.086 141.079 654.228C142.244 656.655 144.564 658.098 146.959 658.078Z" fill="#968787"/>
<path d="M199.852 656.618L311.818 656.119C315.224 656.109 317.975 653.332 317.972 649.878C317.963 646.468 315.189 643.715 311.738 643.719L199.772 644.218C196.366 644.228 193.615 647.005 193.617 650.46C193.627 653.869 196.4 656.622 199.852 656.618Z" fill="#968787"/>
</svg>
