<svg width="304" height="304" viewBox="0 0 304 304" fill="none" xmlns="http://www.w3.org/2000/svg">
<path fill-rule="evenodd" clip-rule="evenodd" d="M54.189 6.59576L55.2813 5.59341L54.0463 4.76483C51.1446 2.83139 47.5819 2.51791 43.7493 3.85235C38.4208 5.71441 33.291 10.717 30.9292 15.9183C24.4526 8.50124 15.8562 6.93405 10.0312 5.92854L7.50811 5.46306L5.81993 5.18374L6.58954 9.37639C7.59189 15.1984 9.15919 23.7946 16.5731 30.2714C11.375 32.6362 6.3692 37.7629 4.50714 43.0913C3.9845 44.5391 3.70969 46.0646 3.69412 47.6037C3.67588 49.6617 4.27829 51.6776 5.42267 53.3883L6.24821 54.6265L7.25056 53.5311C26.69 32.4282 44.0752 45.2327 44.8076 45.785L46.443 44.1496C45.8875 43.4234 33.083 26.0322 54.189 6.5926V6.59576ZM51.399 6.09307C44.581 12.7746 41.4497 19.2823 40.3511 25.0297C38.0732 25.1353 32.8471 25.8056 29.5142 29.4924C27.2487 32.0061 26.3394 35.3919 26.7646 39.5629C20.7658 40.4535 13.8669 43.4856 6.74786 50.7474C6.30743 49.7561 6.06605 48.688 6.03723 47.6037C6.03723 46.2196 6.34756 44.9224 6.71686 43.8673C8.53538 38.6597 13.9383 33.3002 19.0123 31.671L21.1537 30.9789L19.363 29.6228C11.4184 23.6023 9.89779 14.8041 8.89848 8.98533L8.72775 8.06992L9.64328 8.23749H9.65264C15.4714 9.243 24.2663 10.7636 30.2838 18.7051L31.6368 20.4957L32.3289 18.3545C33.9582 13.2773 39.3177 7.87743 44.5251 6.0651C46.3654 5.41965 48.9257 5.05959 51.4053 6.08991L51.399 6.09307ZM42.2069 195.609C42.0083 185.877 49.987 177.507 49.987 177.507C51.7405 175.562 53.1029 176.729 51.3526 179.261C45.8193 188.804 47.7588 192.252 49.4098 195.197C50.0863 196.398 50.7132 197.512 50.766 198.921C50.9615 203.787 42.3962 205.345 42.2007 195.612L42.2069 195.609ZM28.968 194.83C32.6671 195.414 33.4865 193.102 33.8372 188.798L33.831 188.794C34.4206 181.592 41.4249 175.946 46.4833 172.834C47.4454 172.244 47.2281 171.08 45.7075 171.471C38.1167 173.417 30.5135 179.283 27.2146 184.512C24.2353 189.238 25.2936 194.247 28.968 194.83ZM14.3698 170.5C22.1592 163.493 40.8415 163.688 40.8415 163.688C42.2069 163.688 42.7872 165.438 40.6428 165.634C31.0968 167.381 26.8453 171.08 23.5246 173.97C22.0381 175.264 20.741 176.396 19.2358 177.116C14.3666 179.45 11.0585 173.417 14.3666 170.497H14.3698V170.5ZM64.7871 146.12C64.8057 148.274 66.2829 148.292 66.5808 145.782C68.3683 136.887 71.4437 135.82 74.0661 134.904C75.1336 134.532 76.1236 134.191 76.9243 133.353C79.6956 130.457 75.2702 124.837 69.8485 130.727C64.427 136.618 64.7901 146.12 64.7901 146.12L64.7871 146.12ZM56.4793 147.315C52.0104 142.672 49.2236 135.289 49.1802 130.2C49.143 125.607 52.0446 122.559 54.8624 123.742C57.702 124.93 57.28 126.901 55.66 130.063C52.9539 135.351 55.4149 142.331 57.6059 146.697C58.0248 147.526 57.3699 148.243 56.4762 147.312V147.315H56.4793ZM38.3028 134.97C37.6512 133.44 37.0833 132.102 36.1895 131.004C33.291 127.435 28.2697 130.848 29.7066 134.284C33.0302 142.477 47.8209 149.155 47.8209 149.155C48.8915 149.652 50.0553 148.528 48.4446 147.597C41.6265 142.771 39.7614 138.393 38.3028 134.97ZM19.4344 145.782C26.8266 147.144 38.5077 152.789 40.4536 153.959C42.3962 155.126 42.7873 156.1 41.04 156.1C41.04 156.1 30.7183 153.767 19.6269 154.148C11.8436 154.735 10.0188 144.05 19.4344 145.782ZM52.4853 290.963C57.8168 286.37 60.5323 278.755 60.3461 268.948L60.3555 268.942C59.952 247.901 45.9341 232.688 34.2437 223.633C20.263 212.802 11.4246 198.067 11.7009 197.745L11.7505 197.732C3.0083 181.955 1.22698 163.176 6.65472 145.366C11.7847 128.524 22.9816 116.908 37.3781 113.494C38.8984 113.138 40.429 112.828 41.968 112.563C29.4924 110.593 21.464 106.53 15.1642 99.4454C9.56254 93.1517 7.48026 84.2886 8.16292 74.8388C8.9605 63.7816 14.9221 57.5437 19.7789 54.2542C27.4628 49.0498 38.4239 47.4081 47.0512 50.1608C49.6395 50.9895 52.0384 52.3673 54.2076 54.1021L54.4063 53.8445C61.6805 59.3002 65.7212 70.432 70.8386 84.5213L73.4857 91.7397C76.5829 100.051 82.1131 102.859 86.2096 103.75C91.7335 104.951 97.9434 103.005 100.215 100.727C102.57 98.5392 104.817 92.4907 103.815 86.9296C103.067 82.8083 100.454 77.1849 92.2643 73.793L85.1359 70.8914L85.1171 70.8852C71.2265 65.2804 60.253 60.855 55.0611 53.3915L55.3279 53.2053C53.6677 50.9771 52.3735 48.5316 51.6381 45.9155C49.1864 37.1949 51.2191 26.3021 56.6873 18.8044C60.1413 14.0687 66.587 8.33063 77.666 7.92096C87.1313 7.57027 95.9199 9.96919 102.015 15.7848C108.877 22.333 112.65 30.4979 114.18 43.0325C114.503 41.5241 114.851 40.0035 115.273 38.4798C119.186 24.2167 131.196 13.4387 148.202 8.90774C166.196 4.11002 184.894 6.54919 200.355 15.8438L200.367 15.7942C200.699 15.5335 215.108 24.887 225.445 39.2401C234.082 51.2377 248.792 65.7894 269.802 66.9283C279.599 67.4652 287.305 65.0167 292.084 59.8527C296.155 55.4397 297.803 49.2794 296.835 42.0362C295.749 33.8433 288.878 31.0503 283.329 31.1466C277.805 31.2489 271.934 34.2375 271.4 39.7584C270.82 45.7665 273.194 48.8109 275.295 50.3097C276.836 51.3902 278.658 52.0004 280.539 52.0663C281.747 52.1098 282.845 51.9111 283.655 51.545C283.775 51.4846 283.887 51.4107 283.99 51.3246C284.057 51.2715 284.126 51.2217 284.198 51.1757C284.881 50.555 286.091 49.292 286.439 48.0102C286.9 46.4475 286.802 44.7731 286.163 43.2745C285.998 42.8493 285.694 42.0642 286.377 41.4838C287.066 40.9003 287.826 41.3504 288.115 41.5211C289.449 42.3125 289.477 44.6772 289.424 45.6548C289.297 48.0723 288.257 50.9274 286.011 52.7056C285.813 52.901 285.61 53.0894 285.399 53.2705L285.362 53.2269C285.35 53.2144 285.338 53.2009 285.328 53.1867C285.231 53.2492 285.137 53.3176 285.048 53.3915C284.918 53.4938 284.791 53.5994 284.63 53.6708C283.512 54.1797 282.035 54.4745 280.409 54.4186C278.085 54.3332 275.837 53.5672 273.945 52.2152C270.27 49.5991 268.545 45.0961 269.082 39.5381C269.746 32.661 276.942 27.7701 283.506 27.6521C290.526 27.528 298.921 32.7417 300.134 41.8376C301.192 49.7978 299.339 56.6128 294.774 61.5502C289.508 67.2449 280.195 69.8455 269.681 69.2745C247.749 68.0766 232.493 53.0253 223.558 40.6149C222.705 39.4352 221.819 38.2792 220.902 37.1485C226.581 48.9847 227.093 63.1174 223.366 74.6372C222.733 76.9367 219.983 85.7657 212.939 94.3311C209.37 98.6758 208.088 103.877 209.426 108.591C210.397 112.026 212.687 114.736 215.4 115.667C218.441 116.713 221.085 116.576 222.842 115.282C223.503 114.798 224.005 114.084 224.434 113.28C224.781 112.082 224.818 110.13 222.221 108.653C218.211 106.369 219.397 100.373 224.055 100.733C228.213 101.056 230.836 109.218 226.389 114.677C225.849 115.645 225.113 116.491 224.229 117.159C221.833 118.925 218.432 119.183 214.639 117.883C211.164 116.685 208.374 113.454 207.176 109.23C205.627 103.762 207.07 97.7914 211.136 92.8508L211.154 92.826C211.166 92.8091 211.179 92.7925 211.191 92.7762L210.9 93.0183C210.471 93.3721 210.04 93.729 209.609 94.0331C204.404 97.6951 197.065 99.6129 190.449 99.0327C182.653 98.3499 177.445 93.1643 172.406 88.1491L171.732 87.4757C164.895 80.698 157.764 77.1973 152.156 77.8833C148.711 78.3022 146.039 80.0245 144.63 82.7245C143.259 85.3499 143.315 88.565 144.773 91.3208C145.831 93.3163 147.293 94.3559 149.13 94.418H149.161L149.192 94.4118L149.254 94.4056C152.296 94.0145 153.646 91.7149 154.63 90.0267L154.636 90.0143C155.312 88.8567 155.846 87.9443 156.87 87.8016C156.954 87.7954 157.05 87.7861 157.156 87.7861C157.528 87.8016 157.993 87.9381 158.475 88.4006C158.754 88.6675 159.343 89.4309 158.862 90.7498C158.062 92.9408 154.068 96.4507 149.863 96.7393C147.724 96.8852 144.748 96.2521 142.713 92.4133C140.891 88.9778 140.835 84.9496 142.564 81.6414C144.103 78.687 146.921 76.6202 150.415 75.8195C150.158 73.2592 148.41 53.0687 156.929 48.0133L157.159 47.8706L157.426 47.8489C162.695 47.4207 174.249 55.1356 177.939 62.292L178.032 62.233C178.304 62.0562 178.58 61.8864 178.861 61.724C187.109 57.0504 193.024 59.592 195.814 61.5254C200.379 64.6939 203.129 70.5965 202.344 75.5712C201.785 79.1122 199.873 81.7966 196.969 83.2272C191.37 86.9978 181.734 83.3576 182.135 75.8847C182.513 68.7159 191.305 68.4677 193.068 72.3251C194.213 74.8295 193.549 76.2881 193.006 77.483C192.708 78.1315 192.447 78.6995 192.528 79.3201C193.102 81.0208 194.427 81.3683 195.65 81.2659C198.018 80.217 199.582 78.0818 200.038 75.205C200.68 71.1396 198.291 66.0811 194.483 63.4464C190.439 60.6472 185.297 60.7558 180.006 63.7568C167.226 71.003 174.606 86.6906 174.922 87.3517C179.401 91.7894 184.121 96.1279 190.653 96.7021C196.742 97.2358 203.492 95.4793 208.262 92.1215C211.508 89.8374 214.732 86.3896 217.11 82.6562C218.742 80.0959 220.052 77.2099 221.069 74.1375C221.178 73.765 221.24 73.5231 221.24 73.5231L221.284 73.5355C225.97 58.6424 223.288 39.237 211.018 27.0595C194.542 10.7046 171.121 5.22108 148.801 11.1701C132.614 15.4839 121.957 27.4722 118.264 40.9097C108.818 75.295 126.234 103.917 162.732 116.486C172.325 119.785 181.011 122.23 189.412 124.595C198.629 127.19 207.101 129.747 214.9 133.024L268.65 81.2597L298.902 82.3273L298.821 84.661L269.556 83.6307L254.753 97.8844L254.598 98.0334C241.207 110.928 222.851 128.608 217.215 134.029C220.809 135.622 224.293 137.454 227.642 139.513L274.062 96.2521L298.961 97.1272L298.74 103.356L283.906 115.297C283.906 115.297 267.334 110.425 254.04 122.814C248.348 128.363 245.561 133.676 244.283 136.785L248.423 139.038C249.847 135.032 252.122 131 255.765 127.509C262.471 121.085 270.695 118.125 278.916 119.174C286.426 120.132 293.114 124.294 296.823 130.293V130.299C297.077 130.715 297.735 131.789 297.114 132.738C296.438 133.772 295.072 133.576 293.192 133.309C291.063 133.002 288.155 132.589 286.277 133.852C282.46 136.428 257.726 159.967 252.42 165.026C254.302 168.394 255.831 171.948 256.985 175.63L291.404 142.827L298.511 143.076L298.427 145.409L292.304 145.192L274.671 162L274.388 162.27L257.714 178.165C258.316 180.496 258.735 182.839 258.993 185.173L296.711 150.018L296.425 158.186L259.12 194.048C258.803 197.899 257.928 201.684 256.522 205.283C255.766 207.157 254.846 208.96 253.773 210.673C253.959 211.539 254.347 213.407 254.769 216.033C255.185 216.188 258.08 217.203 261.857 215.552C266.683 213.441 270.882 207.756 274.004 199.107C279.087 185.005 284.574 181.467 288.279 180.977C291.224 180.586 294.123 181.995 296.031 184.738C297.54 186.911 298.201 190.892 296.453 194.011C295.026 196.562 292.295 197.853 288.773 197.651L288.555 197.639L288.36 197.549C287.118 196.997 287.14 196.035 287.174 195.758C287.329 194.557 288.838 193.71 291.665 193.229C294.703 192.72 294.992 190.343 295.013 190.073L295.147 190.085C295.2 188.552 294.781 187.038 294.11 186.076C293.583 185.322 291.634 182.895 288.58 183.295C286.073 183.627 281.132 186.222 276.195 199.901C272.787 209.348 268.253 215.347 262.71 217.73C259.467 219.127 256.712 218.897 255.141 218.553C255.998 224.604 256.799 233.294 256.287 242.576L271.35 246.39C272.504 243.308 275.494 241.306 278.783 241.412C283.023 241.565 286.339 245.122 286.194 249.363C286.039 253.602 282.483 256.917 278.243 256.774C274.001 256.622 270.683 253.065 270.826 248.823C270.828 248.796 270.832 248.769 270.838 248.742L270.841 248.711C270.844 248.697 270.846 248.682 270.848 248.668L256.128 244.944C255.79 249.455 255.069 253.93 253.971 258.319L267.968 270.239L267.741 270.506C268.979 269.668 270.472 269.181 272.076 269.181C276.376 269.186 279.861 272.671 279.866 276.97C279.859 281.269 276.375 284.752 272.076 284.757C267.777 284.752 264.292 281.267 264.287 276.967C264.287 275 265.044 273.222 266.251 271.847L252.178 259.868C247.74 260.842 243.187 261.357 238.74 261.553L241.943 276.399C241.992 276.396 242.042 276.384 242.095 276.384C246.339 276.389 249.778 279.829 249.782 284.074C249.777 288.317 246.338 291.756 242.095 291.761C237.851 291.756 234.413 288.317 234.408 284.074C234.408 280.694 236.611 277.852 239.646 276.821L236.366 261.634C227.071 261.82 218.416 260.712 212.399 259.644C212.684 261.224 212.818 263.983 211.306 267.176C208.73 272.626 202.577 276.952 193.015 280.024C179.168 284.474 176.4 289.322 175.984 291.817C175.475 294.858 177.833 296.891 178.569 297.443C179.506 298.148 181.005 298.619 182.535 298.619L182.532 298.551V298.486C182.805 298.474 185.188 298.266 185.809 295.249C186.38 292.444 187.283 290.967 188.49 290.852C188.767 290.827 189.725 290.839 190.238 292.099L190.321 292.298V292.515C190.402 296.044 189.015 298.728 186.417 300.063C183.236 301.695 179.28 300.894 177.166 299.308C174.488 297.307 173.188 294.362 173.678 291.432C174.292 287.745 178.026 282.389 192.298 277.802C201.056 274.987 206.884 270.99 209.165 266.242C210.953 262.524 210.037 259.601 209.891 259.176C207.284 258.661 205.432 258.214 204.572 257.996C202.819 259.003 200.984 259.858 199.085 260.551C195.438 261.829 191.625 262.571 187.764 262.754L150.611 298.771H142.436L178.888 262.313C176.536 261.97 174.211 261.462 171.931 260.793C160.54 271.926 149.151 283.061 137.763 294.197V300.326H135.429V293.22L169.429 259.976C165.793 258.69 162.297 257.036 158.996 255.039C153.751 260.159 129.359 284.055 126.646 287.779C125.318 289.604 125.632 292.528 125.861 294.663V294.669V294.678C126.063 296.565 126.206 297.927 125.157 298.564C124.179 299.153 123.127 298.452 122.724 298.185C116.852 294.272 112.936 287.438 112.241 279.9C111.48 271.645 114.726 263.536 121.386 257.059C125.005 253.54 129.114 251.411 133.167 250.126L131.056 245.906C127.906 247.076 122.491 249.676 116.75 255.172C103.905 268.02 108.185 284.76 108.185 284.76L95.7307 299.159H89.4991V274.249L134.368 229.377C132.428 225.958 130.721 222.412 129.256 218.764C120.148 227.577 77.6691 268.684 77.0453 269.293V298.576H74.7085V268.303L128.328 216.414C125.334 208.501 123.074 199.948 120.806 190.641L120.8 190.619C118.733 182.147 116.598 173.386 113.637 163.694C102.363 126.777 74.3733 108.361 39.6746 116.595C26.1129 119.81 13.7614 130.038 8.87671 146.064C2.14238 168.16 6.79748 191.758 22.5626 208.802C34.2995 221.495 53.5994 224.856 68.6476 220.697L68.6383 220.654L68.6631 220.647C68.7314 220.632 68.9424 220.585 69.2527 220.505C72.3624 219.595 75.292 218.391 77.9111 216.849C81.7252 214.599 85.2816 211.499 87.6806 208.336C91.206 203.681 93.1953 197.003 92.8787 190.899C92.5342 184.35 88.3664 179.481 84.0868 174.848C83.4352 174.507 68.0176 166.577 60.3275 179.099C57.1466 184.282 56.8517 189.415 59.5082 193.552C62.0157 197.45 66.9811 200.013 71.0651 199.517C73.9606 199.163 76.1454 197.673 77.2781 195.346C77.4177 194.123 77.1229 192.788 75.4409 192.158C74.8264 192.056 74.2491 192.295 73.5913 192.568C72.3778 193.071 70.8976 193.685 68.4335 192.45C64.6381 190.554 65.1998 181.775 72.3748 181.651C79.857 181.514 83.1589 191.271 79.1929 196.733C77.6598 199.585 74.9101 201.397 71.3475 201.832C66.3511 202.443 60.5478 199.489 57.5437 194.812C55.7096 191.951 53.3697 185.955 58.3351 177.874C58.4965 177.61 58.664 177.365 58.8317 177.123L58.9371 176.967C51.9142 173.032 44.6089 161.215 45.2265 155.964L45.2575 155.694L45.4034 155.467C50.7598 147.138 70.8758 149.593 73.4267 149.94C74.3485 146.474 76.5147 143.734 79.5218 142.294C82.8889 140.689 86.911 140.882 90.2781 142.821C94.0486 144.993 94.5731 147.991 94.3497 150.123C93.9121 154.313 90.2657 158.186 88.0467 158.906C86.7123 159.34 85.9675 158.723 85.713 158.437C85.3601 158.081 85.1559 157.604 85.1419 157.103C85.1419 156.994 85.1545 156.898 85.1731 156.811C85.3499 155.793 86.284 155.29 87.4695 154.657C89.195 153.736 91.5411 152.46 92.0376 149.441L92.047 149.388C92.0532 149.365 92.0562 149.341 92.0564 149.316C92.0564 147.479 91.0725 145.98 89.1144 144.854C86.4144 143.302 83.2024 143.132 80.5273 144.41C77.7808 145.723 75.9684 148.336 75.4284 151.762C74.547 157.339 77.7901 164.594 84.3289 171.661L84.9744 172.356C89.8094 177.563 94.809 182.957 95.2155 190.774C95.56 197.406 93.3938 204.671 89.5488 209.745C89.2409 210.14 88.918 210.523 88.5805 210.893C88.4651 211.024 88.3502 211.156 88.236 211.288L88.3106 211.232C93.397 207.343 99.4113 206.111 104.82 207.852C109.001 209.196 112.129 212.098 113.2 215.614C114.369 219.446 113.997 222.841 112.147 225.172C111.446 226.031 110.574 226.736 109.587 227.242C103.979 231.494 95.9075 228.589 95.7369 224.418C95.5382 219.75 101.574 218.779 103.713 222.866C105.103 225.51 107.055 225.541 108.262 225.24C109.084 224.84 109.808 224.365 110.32 223.72C111.676 222.013 111.905 219.375 110.971 216.296C110.133 213.55 107.505 211.17 104.107 210.074C99.4361 208.575 94.1946 209.674 89.7288 213.084C80.9214 219.822 72.0023 222.261 69.681 222.81C58.031 226.131 43.9293 225.122 32.301 219.03C33.3871 219.968 34.5012 220.896 35.6681 221.802C47.7558 231.168 62.2578 246.948 62.6829 268.911C62.8846 279.438 59.9582 288.651 54.0804 293.716C48.9909 298.104 42.1138 299.715 34.194 298.377C25.1508 296.847 20.2288 288.273 20.6075 281.259C20.952 274.705 26.0911 267.682 32.993 267.263C38.5667 266.922 43.0045 268.805 45.4902 272.57C46.9054 274.708 47.464 277.035 47.464 279.109C47.464 280.735 47.1226 282.203 46.5733 283.298C46.4957 283.453 46.3872 283.577 46.2816 283.702C46.2006 283.789 46.1269 283.882 46.0613 283.981C46.0706 283.981 46.1451 284.055 46.1451 284.055C45.9522 284.255 45.7556 284.452 45.5554 284.645C43.7058 286.83 40.8135 287.764 38.3928 287.81C37.4122 287.829 35.0537 287.724 34.3057 286.355C34.1474 286.063 33.7254 285.284 34.3305 284.617C34.9326 283.956 35.7115 284.285 36.1304 284.468H36.1398C37.6135 285.158 39.2811 285.313 40.8569 284.909C42.1479 284.608 43.4544 283.438 44.0968 282.78C44.1444 282.711 44.1962 282.646 44.252 282.584C44.3358 282.482 44.4195 282.38 44.4817 282.249C44.8852 281.452 45.1147 280.362 45.1147 279.155C45.1155 277.272 44.5687 275.43 43.5414 273.852C42.1231 271.701 39.1625 269.218 33.1358 269.587C27.6025 269.926 24.409 275.689 24.1143 281.206C23.8194 286.749 26.3705 293.713 34.5198 295.091C41.7259 296.311 47.9388 294.88 52.4883 290.963H52.4853ZM152.718 75.5184C158.267 75.1988 164.852 78.1563 171.226 83.8261C169.814 78.4946 168.93 69.6158 175.999 63.6853C172.989 57.2178 162.487 50.3129 158.046 50.1546L157.953 50.1577C151.911 54.0369 152.097 69.442 152.718 75.5184ZM278.696 243.746C274.573 243.771 272.024 248.251 274.107 251.809C274.996 253.326 276.571 254.31 278.323 254.443C281.272 254.545 283.754 252.233 283.857 249.282C283.956 246.33 281.648 243.854 278.696 243.746ZM272.073 271.515C269.066 271.515 266.621 273.96 266.621 276.964C266.621 279.971 269.066 282.417 272.073 282.417C275.077 282.417 277.523 279.971 277.523 276.964C277.523 273.96 275.077 271.515 272.073 271.515ZM247.448 284.071C247.448 281.12 245.049 278.718 242.098 278.718C239.143 278.718 236.745 281.12 236.745 284.071C236.745 287.019 239.147 289.421 242.098 289.421C245.046 289.421 247.448 287.019 247.448 284.071ZM133.685 167.477C142.846 214.137 147.386 225.706 173.923 226.718V226.711L173.994 226.24C174.047 225.877 174.1 225.513 174.19 225.147C176.058 217.482 181.654 212.206 189.375 210.565C189.071 209.367 188.292 205.854 188.102 200.807C171.617 185.97 144.035 182.392 143.758 182.358L142.911 182.253L139.349 162.67L141.63 164.163C143.051 165.094 174.96 186.07 188.078 197.617C188.093 196.438 188.149 195.197 188.248 193.899C176.53 181.818 138.135 152.724 136.534 151.507L136.487 151.473L136.121 151.2L133.368 136.068L135.168 136.571L150.291 140.807L150.514 141.304C163.086 169.312 191.342 191.733 191.625 191.957L191.678 191.997L192.168 191.954C181.455 178.556 161.789 144.665 160.932 143.175L159.564 140.816L162.214 141.453L178.919 145.462L178.975 146.322C178.991 146.601 181.039 174.572 195.094 191.839C198.167 191.814 202.272 192.075 207.083 193.111C209.149 185.818 214.531 180.701 222.019 179.146C222.205 179.112 222.391 179.09 222.578 179.072C222.717 179.056 222.86 179.04 223.003 179.016C222.078 152.231 212.6 144.55 165.798 135.364C138.56 130.017 121.063 120.216 110.95 112.629C118.537 122.739 128.338 140.239 133.685 167.477ZM192.264 210.111C199.101 209.5 205.255 211.077 210.084 214.543C206.837 209.609 205.506 203.452 206.353 196.686C206.384 196.419 206.44 196.168 206.496 195.917C206.536 195.747 206.572 195.576 206.605 195.405C198.663 193.701 192.686 194.204 190.576 194.483C190.483 195.882 190.405 197.263 190.405 198.517C190.405 205.028 191.491 209.432 191.699 210.201C191.787 210.19 191.874 210.176 191.96 210.158C192.059 210.139 192.158 210.121 192.264 210.111ZM248.115 139.86C246.042 146.201 246.076 152.383 246.415 156.153C242.039 150.701 237.353 146.269 232.313 142.61C235.106 136.155 243.321 139.563 243.321 139.563C243.321 139.563 243.373 139.348 243.476 138.995L247.417 141.139L248.115 139.86ZM257.484 142.762C255.629 149.081 256.339 155.151 256.777 157.649L258.36 156.15L258.841 155.694C257.872 153.633 256.581 149.475 257.484 142.762ZM248.894 159.421C249.714 160.569 250.496 161.739 251.222 162.928L251.628 162.543L252.339 161.867L252.342 161.86L255.03 159.3L254.738 159.374C254.676 159.12 248.618 133.514 271.906 124.663C272.682 124.434 273.737 124.126 274.187 125.135C274.634 126.15 273.892 126.6 272.402 127.506C269.479 129.291 261.717 134.029 260.429 139.615C258.735 146.983 259.747 151.644 260.644 153.987C269.948 145.208 282.24 133.753 284.968 131.91C286.575 130.824 288.543 130.594 290.368 130.662C291.513 130.699 292.605 130.858 293.514 130.985C293.514 130.985 293.992 131.031 294.473 131.072C291.116 125.992 285.126 122.317 278.615 121.482C277.908 121.391 277.196 121.333 276.483 121.309C269.693 121.07 262.98 123.822 257.373 129.185C245.403 140.652 249.167 159.164 249.208 159.353L248.897 159.421H248.894ZM214.894 216.753C219.602 221.284 226.575 223.565 232.667 222.568H232.657C242.511 220.955 250.409 214.344 254.334 204.42C259.846 190.498 256.507 173.057 245.626 158.893C231.826 140.934 212.957 135.665 191.088 129.56H191.082L191.06 129.551L191.02 129.542L187.047 128.431L186.904 128.387C178.516 126.026 169.845 123.583 160.247 120.275C128.009 109.178 110.881 83.3668 112.672 53.8569C111.533 37.4059 107.024 25.0453 99.4827 17.8455C93.8655 12.4797 86.0451 10.686 77.2315 11.0118C67.0866 11.3843 61.6991 15.853 58.5492 20.1761C53.4784 27.1245 51.5977 37.2135 53.8631 45.2823C55.9424 52.6963 62.6613 58.8378 70.9658 60.9358C78.1376 62.7449 84.7666 61.1685 89.1702 56.6128C94.0021 51.6101 95.1907 42.8741 91.9942 35.8511C89.4495 30.2651 84.6764 27.2239 78.898 27.5248C75.5991 27.6924 73.0916 28.8283 71.4437 30.8921C70.5841 31.9658 70.0162 33.204 69.6438 34.4641C71.5554 32.7882 75.2608 30.5538 80.3876 32.1582C88.0871 34.5726 86.9172 51.2811 75.267 50.2849C63.617 49.2918 63.8312 37.6139 65.5319 33.5827C67.2324 29.5482 71.1179 24.4308 80.8253 25.1632L80.7539 25.1818L80.5863 25.2252C86.5479 25.5449 91.4263 28.9648 94.1232 34.886C97.7044 42.75 96.3266 52.5691 90.8523 58.2358C86.7402 62.4998 80.7135 64.458 74.243 63.8342C77.7653 65.4046 81.6414 66.9687 85.7875 68.6445L85.9923 68.7251L93.1301 71.6361C102.304 75.4284 105.243 81.8151 106.09 86.5167C107.21 92.7049 104.997 98.7936 102.412 101.748C106.127 105.962 124.626 124.474 167.257 132.152C214.928 140.742 226.115 150.459 225.939 178.749C232.62 178.606 238.728 181.604 241.853 186.892C245.918 193.772 244.093 201.074 240.49 205.264C239.622 206.278 238.597 207.148 237.455 207.84C232.034 212.461 220.651 211.064 220.222 200.783C219.747 189.372 233.492 188.981 235.298 195.765C236.44 200.06 234.625 202.024 233.343 203.414C232.598 204.221 232.031 204.833 232.325 205.59C232.661 206.465 233.436 206.716 234.221 206.732C235.866 206.273 237.409 205.258 238.721 203.737C241.781 200.181 243.314 193.962 239.842 188.078C236.679 182.709 229.539 179.978 222.494 181.436C214.857 183.022 209.689 188.829 208.671 196.975C207.396 207.142 211.353 213.342 214.894 216.753ZM233.049 224.874C227.199 225.833 220.874 224.179 215.853 220.551C219.251 225.681 220.657 232.003 219.502 237.775C219.199 239.233 218.788 240.667 218.27 242.064C222.302 242.43 233.148 243.578 241.66 246.03C240.655 242.663 238.898 235.255 238.312 223.499C236.602 224.118 234.839 224.578 233.045 224.874H233.049ZM253.183 258.422L252.103 258.139L252.382 259.365L253.183 258.422ZM217.345 244.332C215.133 249.122 211.687 253.238 207.359 256.255C214.403 257.844 234.017 261.485 251.746 257.581C256.19 240.056 253.273 220.461 251.936 213.395C248.973 217.34 245.078 220.487 240.599 222.556C241.334 239.088 244.512 247.252 244.55 247.336L245.487 249.673L243.097 248.879C234.172 245.899 220.765 244.621 217.345 244.332ZM136.574 259.315C143.321 258.645 147.433 260.085 149.453 261.125L151.48 259.129C148.997 258.608 142.955 257.68 136.574 259.315ZM153.528 251.318L153.45 251.628C153.264 251.585 134.892 247.172 123.015 258.729C117.454 264.141 114.466 270.751 114.466 277.548C114.466 278.255 114.497 278.966 114.565 279.68C115.167 286.218 118.63 292.335 123.587 295.867L123.534 294.911L123.524 294.837C123.402 293.811 123.334 292.781 123.32 291.749C123.32 289.924 123.618 287.962 124.756 286.398C126.693 283.736 138.579 271.859 147.681 262.872C145.369 261.891 140.748 260.715 133.325 262.152C127.708 263.241 122.705 270.81 120.809 273.681L120.803 273.693C119.844 275.146 119.363 275.875 118.37 275.388C117.38 274.903 117.727 273.864 117.982 273.097C127.649 250.132 153.022 257.084 153.276 257.159L153.196 257.447L156.951 253.763C155.79 253 154.654 252.178 153.528 251.318ZM150.35 248.72C145.052 244.158 140.792 239.317 137.313 234.15C130.768 236.714 133.88 245.043 133.88 245.043C133.88 245.043 133.669 245.083 133.309 245.179L135.314 249.189L133.995 249.853C140.41 247.997 146.589 248.249 150.35 248.72ZM17.3024 97.0217C24.2229 104.808 36.4253 109.746 52.8236 111.468V111.477C82.3769 110.726 107.573 128.75 117.529 161.354C120.502 171.099 122.643 179.882 124.716 188.366L124.732 188.431C125.067 189.797 125.393 191.153 125.715 192.497C131.05 214.571 135.646 233.616 153.112 248.047C166.882 259.418 184.198 263.368 198.306 258.35C208.361 254.778 215.251 247.116 217.206 237.328C218.416 231.276 216.38 224.219 212.017 219.36C208.73 215.701 202.676 211.533 192.472 212.445C184.291 213.174 178.308 218.137 176.459 225.715C174.752 232.704 177.225 239.938 182.485 243.286C188.239 246.967 194.511 245.654 198.173 242.719C199.737 241.465 200.804 239.956 201.323 238.33C201.332 237.545 201.109 236.76 200.246 236.391C199.498 236.068 198.865 236.611 198.033 237.328C196.599 238.563 194.573 240.31 190.321 239.016C183.606 236.974 184.484 223.251 195.867 224.129C206.127 224.918 207.123 236.344 202.313 241.595C201.581 242.714 200.676 243.709 199.631 244.543C195.324 247.994 187.963 249.555 181.228 245.257C176.046 241.946 173.265 235.727 173.647 229.051C145.816 227.956 139.013 216.352 130.473 168.948C122.646 125.492 103.554 107.098 99.8302 103.893C96.4941 105.885 91.0601 107.213 85.6944 106.046C81.03 105.028 74.7457 101.866 71.2793 92.5715L68.6259 85.3282C67.0711 81.0486 65.6156 77.0484 64.1509 73.4175C64.5419 79.9035 62.3757 85.8589 57.9689 89.8156C52.1129 95.0914 42.2503 96.1155 34.5198 92.2673C28.701 89.3626 25.4487 84.363 25.3463 78.3952L25.3215 78.4728C25.3037 78.5252 25.2871 78.578 25.2718 78.6311C24.8839 68.899 30.138 65.2028 34.2251 63.6418C38.3091 62.0871 49.9902 62.2826 50.5736 73.9606C51.157 85.6386 34.4206 86.222 32.2792 78.4356C30.8517 73.253 33.2196 69.6376 34.9605 67.7849C33.6537 68.0996 32.4204 68.6656 31.3297 69.4513C29.2039 71.0278 27.9842 73.4919 27.6987 76.7815C27.196 82.5506 30.0634 87.4261 35.5626 90.1694C42.4707 93.611 51.2346 92.7297 56.411 88.0777C61.1157 83.8385 62.925 77.2657 61.3702 70.041C59.5671 61.662 53.6615 54.7351 46.3251 52.3953C38.3464 49.8474 28.1952 51.3712 21.0699 56.1937C16.6414 59.1917 11.9894 64.4177 11.257 74.544C10.6208 83.3389 12.1384 91.2153 17.3024 97.0217ZM60.4081 175.093C66.5838 168.238 75.4284 169.429 80.7073 171.034C75.264 164.461 72.5361 157.776 73.0544 152.246C67.0029 151.411 51.6101 150.688 47.5261 156.591L47.523 156.678C47.523 161.116 54.0494 171.856 60.4081 175.093ZM197.142 46.2102C206.856 46.7441 205 55.2535 200.147 54.8873C198.741 54.7817 197.648 54.1145 196.475 53.4007C193.589 51.6443 190.21 49.5835 180.477 54.7787C177.886 56.442 176.769 55.0362 178.774 53.3542C178.774 53.3542 187.42 45.6734 197.139 46.2102H197.142ZM186.579 30.8455C181.231 33.955 175.109 41.3472 172.893 48.8637V48.8605C172.452 50.3687 173.607 50.6294 174.23 49.6861C177.52 44.7392 183.407 37.9367 190.625 37.6046C194.942 37.4091 197.279 36.6736 196.826 32.9557C196.373 29.2689 191.407 28.0338 186.579 30.8455ZM165.283 43.7275C165.283 43.7275 165.749 25.0453 173.026 17.5103C176.058 14.3076 181.97 17.83 179.469 22.6061C178.693 24.0833 177.52 25.3402 176.176 26.78C173.169 29.9983 169.321 34.1164 167.238 43.6003C166.969 45.7354 165.24 45.0899 165.283 43.7275ZM135.354 75.9095C136.36 73.3212 137.536 70.2924 146.486 68.8152C149.009 68.6041 149.034 67.1301 146.883 67.0369C146.883 67.0369 137.406 66.3449 131.329 71.5523C125.25 76.7598 130.709 81.3838 133.7 78.7149C134.566 77.9453 134.945 76.9646 135.354 75.9095ZM147.715 59.8837C143.433 57.5375 136.546 54.8283 131.165 57.3482C127.947 58.8534 125.964 59.2103 124.874 56.3241C123.788 53.469 126.938 50.6728 131.528 50.8777C136.611 51.1011 143.892 54.1425 148.376 58.7696C149.273 59.6943 148.531 60.3244 147.718 59.8806H147.715V59.8837ZM136.673 40.1741C140.044 41.7507 144.354 43.7709 148.935 50.7566C149.807 52.3953 150.968 51.278 150.514 50.1857C150.514 50.1857 144.36 35.1715 136.289 31.5593C132.903 30.0013 129.325 34.8985 132.782 37.9211C133.849 38.8521 135.168 39.4697 136.673 40.1741ZM155.573 42.9921C154.471 41.0059 149.242 29.1386 148.14 21.6968C146.744 12.2314 157.357 14.4224 156.501 22.184C155.725 33.2598 157.696 43.65 157.696 43.65C157.631 45.4003 156.671 44.9814 155.573 42.9921ZM145.509 190.3L145.664 191.572C145.704 191.873 146.641 199.073 150.455 202.251L151.058 202.75L151.75 202.381C164.281 195.749 176.918 200.702 181.455 202.48C182.048 202.713 182.504 202.893 182.805 202.983C185.381 203.768 185.108 201.534 183.835 200.885C183.177 200.55 182.445 200.109 181.694 199.653C180.989 199.228 180.273 198.793 179.59 198.433C163.369 189.868 147.513 190.234 146.787 190.256L145.509 190.3ZM180.034 205.46C182.743 205.975 181.933 207.812 179.869 207.775C177.809 207.741 175.974 208.234 174.339 208.771C166.689 211.291 163.505 217.6 163.344 217.926L162.897 218.838L161.926 218.522C161.584 218.407 159.592 217.513 154.114 211.167L153.36 210.298L154.22 209.537C162.438 202.229 177.318 204.951 180.031 205.466L180.034 205.46ZM189.812 148.162L188.549 147.932L188.441 149.208C188.379 149.915 187.181 165.001 194.244 181.235L194.461 181.744C195.225 183.506 196.075 185.468 197.043 186.901C198.111 188.472 199.774 187.084 199.141 185.877C198.505 184.673 198.257 183.736 197.481 180.477C196.01 174.283 194.846 163.831 200.268 154.841L200.671 154.167L200.209 153.54C197.248 149.555 190.116 148.215 189.812 148.162ZM208.079 157.472L208.907 158.273C214.782 163.949 215.679 165.991 215.809 166.481L216.079 167.465L215.139 167.865C214.77 168.02 206.744 171.527 204.525 181.132C204.339 181.976 204.277 182.265 204.091 183.798C203.902 185.331 201.971 186.237 201.77 183.832C201.689 182.876 201.642 182.436 201.608 182.119C201.54 181.49 201.497 180.859 201.481 180.226C201.233 174.64 201.599 163.998 207.269 158.291L208.079 157.469L208.079 157.472ZM87.5564 91.867C91.153 91.9597 93.5012 88.1241 91.7831 84.9631C90.9446 83.4201 89.3118 82.4774 87.5564 82.5227C83.9599 82.6153 81.8123 86.5667 83.6908 89.6352C84.5179 90.9862 85.9729 91.8262 87.5564 91.867Z" fill="url(#paint0_linear_95_55)"/>
<defs>
<linearGradient id="paint0_linear_95_55" x1="152" y1="3.04004" x2="152" y2="300.96" gradientUnits="userSpaceOnUse">
<stop stop-color="#241B1E"/>
<stop offset="1" stop-color="#2C2427"/>
</linearGradient>
</defs>
</svg>
