<svg width="304" height="304" viewBox="0 0 304 304" fill="none" xmlns="http://www.w3.org/2000/svg">
<path fill-rule="evenodd" clip-rule="evenodd" d="M185.654 -19.9792L187.135 -19.9156L186.847 -21.3748C186.163 -24.7937 183.865 -27.5346 180.211 -29.3011C175.127 -31.7522 167.962 -31.8422 162.614 -29.8343C163.279 -39.6587 158.309 -46.8454 154.901 -51.6753L153.446 -53.7885L152.45 -55.1797L150.029 -51.6709C146.621 -46.8454 141.651 -39.6587 142.314 -29.8364C136.966 -31.8399 129.801 -31.7544 124.717 -29.3033C123.324 -28.6492 122.051 -27.7648 120.951 -26.6875C119.483 -25.2451 118.484 -23.3937 118.083 -21.3749L117.791 -19.9156L119.275 -19.9814C147.942 -21.1576 151.182 0.189683 151.309 1.09811L153.622 1.09811C153.742 0.191833 156.986 -21.1598 185.656 -19.9814L185.654 -19.9792ZM184.036 -22.3075C174.491 -22.4039 167.675 -20.0165 162.834 -16.7293C161.149 -18.2654 156.979 -21.4868 152.015 -21.2365C148.636 -21.0611 145.599 -19.3099 142.95 -16.06C138.079 -19.672 131.056 -22.4062 120.888 -22.3052C121.277 -23.3176 121.862 -24.2436 122.608 -25.0307C123.587 -26.0094 124.723 -26.7072 125.731 -27.1922C130.699 -29.5885 138.309 -29.5578 143.049 -27.122L145.053 -26.0972L144.745 -28.3223C143.385 -38.1972 148.531 -45.4936 151.939 -50.3148L152.465 -51.0828L152.994 -50.3169L153.001 -50.3103C156.404 -45.4848 161.548 -38.1906 160.187 -28.3202L159.878 -26.0972L161.881 -27.122C166.624 -29.56 174.232 -29.5885 179.195 -27.1879C180.953 -26.343 183.018 -24.7872 184.043 -22.3052L184.036 -22.3075ZM43.528 105.201C50.2693 98.1789 61.8294 97.9024 61.8294 97.9024C64.4452 97.7663 64.5835 99.5548 61.5552 100.108C50.8947 102.943 49.8282 106.752 48.9131 110.002C48.5423 111.33 48.1977 112.561 47.2387 113.595C43.9362 117.174 36.7781 112.219 43.5215 105.199L43.528 105.201ZM34.7175 95.2889C36.9206 98.3171 39.1348 97.2617 42.4265 94.466L42.4243 94.4594C47.9344 89.7831 56.8789 90.7443 62.6567 92.1201C63.754 92.3835 64.4232 91.407 63.0715 90.6082C56.3281 86.6165 46.8044 85.3877 40.7741 86.7526C35.3253 87.988 32.5318 92.2781 34.7175 95.2889ZM41.5992 67.7622C52.0621 68.3152 65.1342 81.6638 65.1342 81.6638C66.0997 82.6293 65.2725 84.2772 63.6179 82.8992C55.6324 77.3846 50.0104 76.9941 45.6193 76.689C43.6531 76.5529 41.935 76.4367 40.3616 75.8815C35.2683 74.0886 37.195 67.4835 41.5991 67.7578L41.6014 67.76L41.5992 67.7622ZM94.4889 86.1733C92.9792 87.7094 94.0105 88.7671 95.9964 87.2025C103.55 82.1772 106.479 83.597 108.981 84.804C109.999 85.2955 110.94 85.7541 112.099 85.7279C116.106 85.64 116.951 78.5367 108.952 78.868C100.954 79.1994 94.4911 86.1754 94.4911 86.1754L94.4889 86.1733ZM87.7696 81.1437C87.8924 74.7009 91.1424 67.5098 94.7105 63.8802C97.9319 60.6062 102.139 60.503 103.295 63.3317C104.463 66.18 102.771 67.275 99.389 68.3656C93.7362 70.1914 90.5412 76.8668 89.0029 81.5035C88.7131 82.3857 87.7432 82.4296 87.7695 81.1393L87.7674 81.1415L87.7696 81.1437ZM83.6463 59.5616C84.2673 58.0189 84.8115 56.6717 84.9564 55.2628C85.4303 50.6897 79.466 49.5529 78.0527 52.9982C74.6097 61.1416 80.3459 76.3226 80.3459 76.3226C80.7519 77.4306 82.3691 77.4593 81.8886 75.662C80.4797 67.4285 82.2572 63.0134 83.6463 59.5616ZM62.6589 53.865C66.9227 60.0553 71.1908 72.3068 71.7394 74.51C72.288 76.7088 71.8755 77.6743 70.64 76.4388C70.64 76.4388 64.9916 67.49 56.8789 59.9172C50.9606 54.8283 57.2256 45.9826 62.6589 53.865ZM-16.6295 179.894C-9.61184 180.417 -2.30661 176.952 4.49611 169.886L4.50711 169.888C19.0999 154.724 19.9447 134.055 18.0817 119.386C15.8543 101.841 20.0237 85.1726 20.4473 85.1397L20.4911 85.166C25.4658 67.828 37.4846 53.2901 53.9164 44.5343C69.4528 36.2526 85.584 35.9563 98.1777 43.7224C99.5047 44.5455 100.806 45.4082 102.082 46.3096C94.6534 36.0946 91.849 27.5452 92.4042 18.0807C92.8935 9.66944 97.6883 1.92983 104.853 -4.26946C113.236 -11.5241 121.862 -11.7195 127.622 -10.6112C136.736 -8.85792 145.647 -2.26809 149.801 5.77874C151.045 8.1949 151.767 10.8655 152.075 13.626L152.397 13.5844C153.683 22.5858 148.669 33.3143 142.325 46.8955L139.092 53.8715C135.406 61.9382 137.33 67.8346 139.597 71.361C142.654 76.1163 148.421 79.1314 151.638 79.127C154.851 79.2455 160.716 76.5573 163.94 71.9162C166.325 68.4732 168.454 62.6492 165.061 54.4597L162.072 47.3674L162.063 47.3498C156.205 33.5644 151.574 22.6757 153.181 13.727L153.501 13.784C153.903 11.0345 154.717 8.39017 156.046 6.02027C160.479 -1.8797 169.619 -8.14476 178.787 -9.57984C184.578 -10.4861 193.193 -9.98577 201.317 -2.44143C208.258 4.0036 212.776 11.9144 212.974 20.3366C213.196 29.8186 210.09 38.2606 202.309 48.2057C203.604 47.3673 204.925 46.5378 206.301 45.7588C219.153 38.4404 235.267 39.3116 250.496 48.1331C266.612 57.4638 278.109 72.41 282.469 89.9148L282.513 89.8885C282.932 89.939 286.507 106.741 283.667 124.2C281.29 138.791 281.402 159.482 295.453 175.144C302.001 182.451 309.181 186.168 316.212 185.896C322.212 185.655 327.733 182.464 332.17 176.658C337.195 170.096 334.312 163.263 330.32 159.407C326.342 155.574 320.077 153.535 315.795 157.062C311.137 160.9 310.663 164.731 311.088 167.276C311.414 169.131 312.271 170.85 313.555 172.227C314.378 173.112 315.295 173.748 316.127 174.062C316.254 174.104 316.386 174.131 316.519 174.143C316.604 174.153 316.688 174.166 316.772 174.185C317.693 174.228 319.442 174.191 320.595 173.531C322.025 172.751 323.14 171.498 323.748 169.987C323.932 169.57 324.272 168.8 325.165 168.872C326.065 168.946 326.285 169.802 326.368 170.127C326.752 171.63 325.1 173.322 324.371 173.976C322.572 175.596 319.818 176.879 316.971 176.548C316.694 176.547 316.417 176.536 316.14 176.515L316.144 176.458C316.144 176.44 316.146 176.423 316.149 176.405C316.036 176.381 315.921 176.363 315.806 176.353C315.642 176.333 315.477 176.318 315.313 176.254C314.163 175.824 312.91 174.988 311.799 173.798C310.216 172.095 309.169 169.963 308.786 167.669C308.038 163.221 310.002 158.817 314.312 155.267C319.644 150.873 328.191 152.504 332.916 157.062C337.968 161.938 340.217 171.56 334.643 178.85C329.763 185.227 323.634 188.736 316.914 188.999C309.164 189.302 300.739 184.555 293.709 176.717C279.048 160.362 278.903 138.931 281.361 123.838C281.591 122.401 281.782 120.957 281.933 119.509C277.58 131.894 267.948 142.249 257.167 147.76C255.093 148.938 246.906 153.237 235.868 154.312C230.272 154.861 225.688 157.632 223.301 161.911C221.558 165.027 221.262 168.563 222.522 171.139C223.933 174.029 225.899 175.802 228.056 176.129C228.866 176.254 229.726 176.105 230.597 175.839C231.69 175.238 233.097 173.884 232.304 171.003C231.084 166.552 236.162 163.151 239.201 166.699C241.914 169.868 237.997 177.494 230.992 178.209C229.926 178.512 228.808 178.59 227.709 178.437C224.767 177.992 222.179 175.769 220.417 172.168C218.807 168.863 219.118 164.606 221.258 160.772C224.029 155.811 229.272 152.609 235.64 151.99L235.671 151.986C235.691 151.982 235.712 151.98 235.732 151.977L235.355 151.942C234.802 151.889 234.244 151.837 233.724 151.747C227.455 150.656 220.909 146.822 216.641 141.734C211.611 135.738 211.596 128.389 211.578 121.279L211.578 120.327C211.537 110.7 208.969 103.182 204.519 99.7018C201.787 97.5623 198.68 96.8908 195.774 97.8037C192.948 98.6902 190.714 101.003 189.797 103.983C189.134 106.142 189.432 107.911 190.687 109.254L190.709 109.276L190.736 109.294L190.784 109.333C193.211 111.207 195.792 110.536 197.681 110.038L197.694 110.033C198.991 109.693 200.014 109.425 200.839 110.049C200.902 110.103 200.977 110.165 201.052 110.239C201.304 110.514 201.537 110.939 201.55 111.607C201.559 111.993 201.436 112.95 200.163 113.542C198.048 114.525 192.741 114.183 189.564 111.413C187.949 110.005 186.292 107.452 187.567 103.299C188.708 99.5812 191.517 96.6933 195.078 95.5764C198.256 94.5757 201.71 95.1068 204.747 97.0115C206.375 95.019 219.417 79.5067 229.015 81.9557L229.278 82.017L229.482 82.1905C233.511 85.6138 236.226 99.2388 233.775 106.908L233.882 106.932C234.199 107 234.515 107.075 234.828 107.158C243.965 109.686 246.351 115.666 246.957 119.006C247.944 124.475 245.714 130.593 241.642 133.555C238.743 135.664 235.493 136.21 232.427 135.168C225.802 133.875 221.563 124.488 227.13 119.487C232.467 114.685 238.859 120.727 237.378 124.701C236.417 127.281 234.916 127.843 233.687 128.304C233.018 128.552 232.432 128.769 232.05 129.265C231.253 130.874 231.945 132.056 232.882 132.848C235.298 133.781 237.913 133.377 240.27 131.666C243.599 129.245 245.486 123.979 244.657 119.423C243.777 114.584 240.064 111.025 234.2 109.406C220.04 105.493 214.165 121.804 213.922 122.495C213.95 128.8 214.22 135.205 218.434 140.23C222.362 144.913 228.376 148.444 234.124 149.443C238.034 150.123 242.752 149.965 247.073 149.006C250.038 148.35 253.004 147.235 255.897 145.782C256.237 145.596 256.452 145.468 256.452 145.468L256.474 145.508C270.318 138.291 282.144 122.673 282.078 105.385C281.993 82.1706 269.309 61.732 249.32 50.1564C234.824 41.7606 218.811 42.702 206.698 49.5924C175.704 67.2267 167.78 99.7808 184.701 134.477C189.151 143.592 193.564 151.464 197.832 159.076C202.515 167.428 206.698 175.227 209.895 183.059L284.505 184.463L305.141 206.609L303.434 208.202L283.469 186.781L262.923 186.392L262.708 186.388C244.121 186.037 218.64 185.558 210.821 185.407C212.236 189.075 213.404 192.833 214.317 196.658L277.731 198.891L294.718 217.116L290.158 221.364L271.225 219.319C271.225 219.319 262.952 204.156 244.791 203.515C236.842 203.414 231.115 205.2 228.012 206.495L229.346 211.016C233.187 209.19 237.646 207.948 242.691 208.055C251.975 208.255 259.884 211.977 264.955 218.531C269.587 224.52 271.374 232.192 269.754 239.056L269.75 239.06C269.636 239.534 269.342 240.759 268.231 240.991C267.022 241.244 266.195 240.14 265.054 238.621C263.766 236.899 262.001 234.551 259.781 234.116C255.26 233.238 221.126 232.393 213.797 232.218C212.746 235.931 211.315 239.525 209.527 242.944L257.06 244.088L261.909 249.288L260.2 250.879L256.024 246.396L231.67 245.812L231.28 245.804L208.249 245.253C207.027 247.326 205.667 249.28 204.199 251.112L255.728 252.924L249.75 258.498L198.012 257.478C195.066 259.977 191.771 262.034 188.232 263.585C186.372 264.375 184.446 265 182.476 265.452C181.995 266.196 180.949 267.792 179.391 269.946C179.575 270.35 180.905 273.115 184.743 274.618C189.647 276.538 196.637 275.487 204.96 271.579C218.526 265.202 224.907 266.58 227.874 268.854C230.233 270.66 231.286 273.706 230.696 276.995C230.226 279.598 227.878 282.88 224.438 283.85C221.624 284.645 218.78 283.626 216.432 280.993L216.287 280.831L216.213 280.629C215.726 279.361 216.421 278.696 216.641 278.524C217.6 277.785 219.265 278.252 221.605 279.911C224.113 281.7 225.998 280.223 226.204 280.047L226.29 280.151C227.411 279.104 228.186 277.737 228.392 276.582C228.552 275.676 228.89 272.582 226.448 270.706C224.44 269.167 219.112 267.508 205.948 273.69C196.858 277.96 189.41 278.996 183.806 276.762C180.525 275.457 178.739 273.346 177.872 271.992C174.199 276.876 168.62 283.587 161.695 289.788L169.65 303.137C172.644 301.774 176.175 302.472 178.425 304.873C181.315 307.979 181.144 312.839 178.043 315.735C174.936 318.623 170.078 318.452 167.181 315.353C164.289 312.247 164.458 307.385 167.558 304.487C167.579 304.469 167.601 304.453 167.624 304.438L167.648 304.418C167.66 304.41 167.672 304.401 167.684 304.392L159.909 291.351C156.479 294.302 152.805 296.956 148.926 299.284L150.394 317.609L150.045 317.638C151.513 317.921 152.913 318.632 154.047 319.766C157.084 322.81 157.084 327.738 154.047 330.782C151.003 333.817 146.077 333.816 143.034 330.78C139.997 327.736 139.997 322.808 143.034 319.764C144.425 318.373 146.218 317.651 148.044 317.532L146.562 299.11C142.735 296.661 139.152 293.806 135.869 290.8L127.635 303.563C127.673 303.596 127.717 303.622 127.754 303.659C130.752 306.664 130.751 311.529 127.752 314.533C124.748 317.529 119.885 317.529 116.881 314.533C113.884 311.528 113.884 306.666 116.881 303.661C119.27 301.272 122.838 300.82 125.713 302.237L134.133 289.178C127.429 282.738 122.092 275.834 118.592 270.824C117.677 272.143 115.821 274.188 112.494 275.378C106.819 277.41 99.4087 276.117 90.4752 271.529C77.537 264.884 72.1519 266.354 70.0936 267.825C67.5832 269.615 67.8136 272.72 67.9431 273.631C68.1076 274.792 68.834 276.185 69.9159 277.267L69.9619 277.217L70.008 277.171C70.2099 277.355 72.0422 278.893 74.6141 277.199C77.0016 275.619 78.6847 275.213 79.6195 275.986C79.8324 276.163 80.5017 276.85 79.9729 278.103L79.8916 278.303L79.738 278.456C77.3 281.009 74.421 281.926 71.6407 281.033C68.2371 279.938 66.0054 276.574 65.6323 273.958C65.154 270.649 66.317 267.647 68.7353 265.922C71.7768 263.75 78.2041 262.602 91.5395 269.451C99.7226 273.653 106.67 274.948 111.64 273.203C115.533 271.838 116.953 269.124 117.151 268.72C115.672 266.512 114.677 264.886 114.223 264.125C112.272 263.597 110.37 262.904 108.537 262.051C105.055 260.376 101.833 258.204 98.9742 255.604L47.2345 254.801L41.4543 249.021L93.0099 249.016C91.5891 247.111 90.3044 245.107 89.1652 243.021C73.2382 242.839 57.3111 242.659 41.3841 242.481L37.0501 246.815L35.4 245.165L40.4252 240.14L87.9737 240.675C86.3114 237.194 85.0093 233.552 84.0874 229.806C76.758 229.719 42.613 229.367 38.0617 230.083C35.8323 230.434 33.9867 232.723 32.6394 234.395L32.635 234.399L32.6284 234.406C31.4368 235.883 30.5744 236.947 29.3829 236.655C28.2748 236.381 28.0267 235.141 27.9302 234.667C26.5455 227.748 28.6083 220.147 33.447 214.325C38.7464 207.95 46.7757 204.511 56.0648 204.641C61.1119 204.711 65.5226 206.111 69.297 208.068L70.7892 203.592C67.7345 202.192 62.0665 200.201 54.1205 200.028C35.953 200.03 27.1424 214.893 27.1424 214.893L8.15422 216.269L3.74778 211.863L21.3623 194.248L84.8181 194.246C85.8649 190.457 87.1646 186.742 88.7088 183.127C76.0361 182.918 16.9318 181.948 16.0606 181.937L-4.64582 202.644L-6.29818 200.991L15.1083 179.585L89.7138 180.809C93.192 173.096 97.6423 165.451 102.619 157.266L102.63 157.246C107.159 149.794 111.844 142.089 116.604 133.142C134.737 99.0655 127.967 66.2524 97.6093 47.5385C85.7463 40.2224 69.7798 38.7213 54.9938 46.5992C34.6078 57.4615 21.2131 77.4395 20.3089 100.639C19.6331 117.913 30.9036 133.937 44.4849 141.637L44.5089 141.6L44.5309 141.613C44.5902 141.65 44.7722 141.767 45.0487 141.929C47.8906 143.485 50.8135 144.705 53.7562 145.466C58.0441 146.572 62.7511 146.895 66.6835 146.355C72.468 145.556 78.5969 142.241 82.6895 137.7C87.0762 132.826 87.5721 126.436 87.8222 120.134C87.6028 119.432 82.3077 102.923 68.0155 106.34C62.1015 107.755 58.2636 111.176 57.2168 115.98C56.2336 120.509 57.9322 125.833 61.1711 128.37C63.4687 130.167 66.0669 130.658 68.5136 129.813C69.4769 129.048 70.2121 127.896 69.4682 126.261C69.1061 125.754 68.529 125.515 67.8707 125.243C66.6572 124.74 65.176 124.128 64.307 121.512C62.964 117.488 69.5692 111.677 74.7304 116.662C80.1176 121.857 75.5533 131.091 68.8867 132.148C65.786 133.081 62.5602 132.418 59.7338 130.206C55.7685 127.106 53.754 120.913 54.9367 115.482C55.6631 112.162 58.2482 106.267 67.4735 104.064C67.7741 103.992 68.0659 103.937 68.3557 103.884L68.54 103.849C66.3566 96.1007 69.5472 82.5788 73.6969 79.3025L73.9097 79.1336L74.173 79.0766C83.8504 76.9742 96.3387 92.9343 97.8968 94.9838C101 93.1844 104.469 92.7785 107.614 93.8866C111.129 95.1331 113.837 98.1131 114.846 101.866C115.977 106.068 114.228 108.558 112.562 109.908C109.29 112.561 103.973 112.721 101.895 111.661C100.644 111.025 100.554 110.062 100.576 109.68C100.578 109.178 100.771 108.697 101.116 108.332C101.193 108.256 101.27 108.196 101.344 108.148C102.189 107.553 103.205 107.858 104.491 108.249C106.363 108.817 108.924 109.574 111.41 107.79L111.454 107.76C111.475 107.748 111.494 107.733 111.511 107.716C112.81 106.417 113.174 104.661 112.586 102.48C111.774 99.4736 109.624 97.0817 106.828 96.0942C103.958 95.0804 100.829 95.6465 98.024 97.6873C93.4575 101.007 90.6201 108.431 90.2471 118.051L90.2119 118.999C89.9486 126.101 89.67 133.45 84.4297 139.265C79.9839 144.198 73.315 147.803 67.0083 148.672C66.5113 148.734 66.012 148.776 65.5117 148.8C65.3376 148.811 65.1635 148.822 64.9894 148.835L65.0816 148.848C71.4278 149.695 76.5518 153.077 79.1456 158.132C81.1513 162.038 81.3114 166.302 79.5823 169.546C77.6994 173.083 75.0355 175.22 72.0796 175.56C70.976 175.672 69.8613 175.554 68.8055 175.214C61.8339 174.255 58.1802 166.493 61.0088 163.423C64.1687 159.982 69.1237 163.564 67.7456 167.966C66.8591 170.818 68.2174 172.22 69.2839 172.861C70.1485 173.16 70.9955 173.335 71.814 173.241C73.9799 172.993 76.0076 171.29 77.5239 168.453C78.8734 165.918 78.698 162.376 77.0697 159.199C74.8269 154.836 70.3438 151.907 64.7744 151.161C53.7826 149.697 45.751 145.115 43.7211 143.862C33.1353 137.972 23.8771 127.288 19.9623 114.758C20.0676 116.188 20.1993 117.632 20.3836 119.098C22.3082 134.268 21.404 155.681 6.17477 171.512C-1.12606 179.098 -9.71055 183.544 -17.448 182.969C-24.1498 182.473 -30.1515 178.749 -34.8059 172.203C-40.1185 164.727 -37.5357 155.183 -32.3086 150.491C-27.4304 146.1 -18.8306 144.768 -13.6539 149.353C-9.47135 153.052 -7.66533 157.522 -8.56945 161.942C-9.08071 164.454 -10.3315 166.495 -11.7974 167.961C-12.9472 169.111 -14.2267 169.908 -15.3897 170.294C-15.5543 170.349 -15.7189 170.36 -15.8813 170.373C-16 170.377 -16.1182 170.391 -16.2345 170.414C-16.2279 170.421 -16.228 170.526 -16.228 170.526C-16.5059 170.532 -16.7839 170.532 -17.0618 170.526C-19.9146 170.763 -22.6203 169.379 -24.3648 167.7C-25.0714 167.02 -26.6646 165.277 -26.2257 163.781C-26.1314 163.463 -25.8789 162.613 -24.9793 162.569C-24.0862 162.528 -23.7679 163.311 -23.6012 163.737L-23.5946 163.743C-23.0402 165.273 -21.9711 166.562 -20.5707 167.391C-19.445 168.091 -17.6938 168.187 -16.7744 168.176C-16.6924 168.161 -16.6096 168.152 -16.5264 168.148C-16.3948 168.134 -16.2631 168.121 -16.127 168.073C-15.2778 167.794 -14.3452 167.187 -13.4915 166.333C-12.1596 165.002 -11.2432 163.312 -10.8539 161.47C-10.3359 158.946 -10.6739 155.098 -15.1966 151.097C-19.3483 147.424 -25.6815 149.241 -29.7916 152.934C-33.9193 156.645 -37.0398 163.373 -32.2516 170.109C-28.0186 176.067 -22.6138 179.449 -16.6274 179.897L-16.6295 179.894ZM206.588 98.4269C210.738 102.124 213.303 108.872 213.801 117.389C216.573 112.62 222.226 105.717 231.418 106.522C233.863 99.8203 231.319 87.5119 228.291 84.2597L228.223 84.1962C221.207 82.6666 210.446 93.6914 206.588 98.4269ZM176.714 306.461C173.78 303.564 168.81 304.929 167.767 308.919C167.323 310.619 167.741 312.429 168.886 313.762C170.898 315.919 174.289 316.04 176.448 314.026C178.606 312.008 178.725 308.625 176.714 306.461ZM152.395 321.414C150.269 319.288 146.81 319.288 144.686 321.412C142.56 323.538 142.56 326.997 144.686 329.123C146.81 331.247 150.269 331.247 152.395 329.121C154.519 326.997 154.519 323.538 152.395 321.414ZM126.104 312.88C128.191 310.793 128.193 307.399 126.106 305.312C124.017 303.223 120.622 303.225 118.535 305.312C116.451 307.396 116.451 310.793 118.537 312.88C120.622 314.965 124.019 314.965 126.104 312.88ZM128.105 149.993C101.59 189.464 96.6196 200.855 114.669 220.335L114.673 220.331L115.057 220.048C115.351 219.828 115.645 219.609 115.968 219.414C122.709 215.314 130.396 215.541 137.017 219.839C137.649 218.777 139.582 215.742 143.016 212.04C141.851 189.892 124.877 167.858 124.706 167.639L124.181 166.965L135.509 150.599L136.066 153.267C136.413 154.931 144.144 192.326 145.254 209.767C146.099 208.944 147.017 208.106 148.004 207.259C148.261 190.43 141.684 142.708 141.412 140.715L141.403 140.658L141.337 140.206L150.091 127.56L151.008 129.188L158.706 142.877L158.513 143.386C147.598 172.08 151.723 207.915 151.765 208.273L151.774 208.338L152.151 208.654C154.05 191.606 164.109 153.735 164.556 152.076L165.256 149.44L166.681 151.764L175.658 166.412L175.09 167.059C174.903 167.268 156.573 188.494 154.302 210.642C156.492 212.797 159.211 215.885 161.879 220.019C168.498 216.324 175.921 216.51 182.316 220.706C182.472 220.814 182.619 220.93 182.763 221.048C182.873 221.136 182.985 221.226 183.104 221.31C201.39 201.716 200.119 189.583 173.521 149.993C158.041 126.952 152.599 107.65 150.813 95.1331C149.029 107.648 143.584 126.952 128.105 149.993ZM139.38 221.562C144.647 225.964 147.883 231.43 148.847 237.296C150.04 231.511 153.453 226.216 158.836 222.031C159.046 221.865 159.264 221.726 159.481 221.588C159.629 221.496 159.776 221.401 159.92 221.303C155.509 214.483 150.927 210.612 149.237 209.317C148.182 210.241 147.15 211.163 146.264 212.049C141.66 216.653 139.314 220.535 138.917 221.226C138.987 221.28 139.058 221.331 139.132 221.38C139.215 221.437 139.299 221.494 139.38 221.562ZM228.548 211.38C222.599 214.397 218.251 218.793 215.825 221.698C216.586 214.748 216.406 208.301 215.429 202.15C221.969 199.561 225.368 207.779 225.368 207.779C225.368 207.779 225.557 207.665 225.879 207.487L227.15 211.79L228.548 211.38ZM233.121 220.057C227.341 223.212 223.551 228.007 222.094 230.083L224.273 230.142L224.936 230.16C225.708 228.018 227.736 224.164 233.121 220.057ZM215.267 225.762C215.034 227.153 214.76 228.533 214.433 229.887L214.993 229.903L215.974 229.927L215.98 229.925L219.691 230.015L219.432 229.861C219.568 229.637 233.391 207.248 256.116 217.456C256.827 217.842 257.79 218.371 257.395 219.403C256.994 220.436 256.151 220.23 254.457 219.817C251.128 219.012 242.289 216.875 237.428 219.914C231.021 223.925 228.44 227.937 227.417 230.228C240.204 230.598 256.996 231.191 260.228 231.816C262.133 232.185 263.687 233.414 264.929 234.752C265.712 235.589 266.373 236.473 266.926 237.206C266.926 237.206 267.231 237.577 267.542 237.945C268.76 231.979 267.123 225.145 263.11 219.951C262.674 219.386 262.212 218.842 261.725 218.321C257.093 213.35 250.4 210.55 242.642 210.377C226.07 210.021 215.642 225.773 215.537 225.935L215.269 225.764L215.267 225.762ZM150.686 242.26C150.811 248.792 154.129 255.336 159.141 258.939L159.134 258.933C167.242 264.759 177.501 265.67 187.295 261.428C201.036 255.481 211.008 240.787 213.33 223.078C216.27 200.621 206.654 183.553 195.506 163.772L195.502 163.768L195.493 163.746L195.471 163.711L193.448 160.116L193.378 159.985C189.116 152.383 184.712 144.525 180.264 135.398C165.316 104.756 171.456 74.3937 193.588 54.7932C204.416 42.3552 209.968 30.4265 209.726 20.003C209.548 12.2369 205.287 5.43868 198.824 -0.563107C191.388 -7.47323 184.418 -8.12284 179.134 -7.29335C170.635 -5.96567 162.171 -0.161476 158.068 7.14589C154.295 13.8586 154.704 22.9523 159.092 30.308C162.884 36.6585 168.686 40.2311 175.022 40.1236C181.976 40.0029 188.993 34.6661 191.699 27.4398C193.85 21.6905 192.625 16.1649 188.326 12.2918C185.875 10.0776 183.299 9.1077 180.674 9.40177C179.307 9.55319 178.03 10.0272 176.876 10.6548C179.413 10.8215 183.613 11.8617 186.103 16.6213C189.84 23.773 177.199 34.7604 169.665 25.8181C162.129 16.8781 170.538 8.77194 174.591 7.12405C178.647 5.47376 185.013 4.60265 191.359 11.9847L191.295 11.9473L191.146 11.8595C195.136 16.3011 196.167 22.1689 193.887 28.2627C190.859 36.3558 182.941 42.3246 175.063 42.4606C169.141 42.5681 163.494 39.6912 159.36 34.6748C160.74 38.2759 162.375 42.1227 164.122 46.2394L164.21 46.4412L167.199 53.5467C171.004 62.715 168.566 69.3092 165.84 73.2328C162.257 78.4006 156.387 81.1415 152.47 81.4027C152.116 87.0093 152.108 113.18 176.823 148.754C204.457 188.536 205.498 203.318 185.368 223.197C190.194 227.82 192.393 234.259 190.863 240.208C188.873 247.948 182.419 251.821 176.909 252.235C175.577 252.338 174.238 252.229 172.941 251.911C165.84 251.344 158.779 242.308 165.746 234.735C173.479 226.33 183.475 235.773 179.955 241.847C177.725 245.692 175.052 245.797 173.163 245.874C172.066 245.918 171.232 245.948 170.905 246.692C170.523 247.548 170.894 248.275 171.438 248.841C172.926 249.679 174.734 250.052 176.738 249.905C181.416 249.554 186.898 246.24 188.603 239.624C190.163 233.592 187.045 226.611 181.032 222.661C174.51 218.382 166.751 218.834 160.271 223.875C152.18 230.162 150.593 237.344 150.686 242.26ZM157.78 260.84C152.966 257.381 149.663 251.739 148.678 245.624C147.453 251.654 143.977 257.118 139.079 260.383C137.834 261.2 136.529 261.923 135.175 262.545C137.767 265.654 144.625 274.136 148.91 281.888C150.58 278.797 154.576 272.316 162.474 263.589C160.828 262.818 159.256 261.896 157.778 260.837L157.78 260.84ZM148.296 298.799L147.732 297.835L147.063 298.9L148.296 298.799ZM132.917 263.495C127.966 265.318 122.619 265.79 117.425 264.864C121.283 270.969 132.577 287.412 147.874 297.188C163.409 287.938 175.202 272.02 179.252 266.078C174.368 266.772 169.388 266.244 164.758 264.539C153.589 276.749 150.062 284.77 150.029 284.855L149.04 287.17L147.912 284.919C143.707 276.501 135.132 266.117 132.917 263.495ZM65.2089 216.976C70.4535 221.272 72.3429 225.198 73.0363 227.362L75.8803 227.384C74.4934 225.259 70.877 220.331 65.2089 216.976ZM82.8519 223.309L82.5776 223.473C82.4766 223.311 72.6062 207.199 56.0362 206.973C48.2768 206.868 41.4894 209.429 36.6837 214.235C36.1833 214.735 35.7028 215.26 35.2464 215.812C31.0484 220.862 29.1722 227.636 30.1794 233.638L30.818 232.925L30.864 232.865C31.5024 232.054 32.1828 231.277 32.9027 230.537C34.193 229.247 35.7906 228.07 37.7018 227.77C40.954 227.256 57.7566 227.263 70.5479 227.344C69.6065 225.016 67.1707 220.917 60.9056 216.684C56.1635 213.482 47.2739 215.297 43.9033 215.986L43.8902 215.99C42.1851 216.339 41.3292 216.515 40.9715 215.468C40.6139 214.426 41.5948 213.936 42.3168 213.574C65.391 204.171 78.417 227.028 78.5443 227.261L78.2832 227.408L83.5432 227.458C83.2623 226.098 83.0407 224.713 82.8519 223.309ZM82.4415 219.225C81.9214 212.253 82.3318 205.817 83.5256 199.703C77.085 196.888 73.3962 204.979 73.3962 204.979C73.3962 204.979 73.2184 204.858 72.8959 204.672L71.4782 208.924L70.0761 208.461C75.9242 211.685 80.1154 216.232 82.4415 219.225ZM95.63 17.8788C95.0177 28.2781 100.155 40.3979 110.532 53.2111L110.526 53.2176C131.954 73.5839 137.025 104.146 121.011 134.24C116.222 143.232 111.526 150.957 106.993 158.422L106.958 158.479C106.229 159.682 105.5 160.871 104.779 162.049C92.9417 181.431 82.7246 198.148 84.8708 220.702C86.5671 238.479 96.0184 253.517 109.543 259.944C119.178 264.528 129.468 263.982 137.771 258.443C142.906 255.02 146.457 248.591 146.808 242.069C147.071 237.158 145.737 229.929 137.877 223.359C131.577 218.09 123.837 217.368 117.17 221.419C111.022 225.154 107.655 232.018 109.007 238.106C110.473 244.777 115.836 248.283 120.501 248.797C122.494 249.016 124.315 248.705 125.832 247.921C126.393 247.373 126.791 246.659 126.442 245.788C126.141 245.031 125.309 244.968 124.214 244.886C122.327 244.746 119.659 244.548 117.568 240.627C114.263 234.434 124.587 225.352 132.015 234.022C138.713 241.834 131.337 250.618 124.223 250.93C122.915 251.203 121.571 251.267 120.242 251.118C114.756 250.513 108.448 246.411 106.725 238.61C105.402 232.604 107.833 226.24 112.823 221.79C93.9184 201.336 97.313 188.321 124.794 148.762C149.988 112.5 149.494 85.9933 149.128 81.0932C145.36 80.1431 140.578 77.2398 137.609 72.6206C135.031 68.6027 132.823 61.9229 136.944 52.8995L140.19 45.9015C142.116 41.7759 143.916 37.9182 145.447 34.315C141.138 39.1778 135.395 41.8572 129.481 41.539C121.61 41.1286 113.912 34.8789 111.166 26.6916C109.106 20.523 110.341 14.6881 114.489 10.3958L114.416 10.4331C114.367 10.4576 114.318 10.4832 114.269 10.5099C120.877 3.35398 127.205 4.45561 131.199 6.24185C135.186 8.03032 143.308 16.4283 135.463 25.0984C127.618 33.7686 115.371 22.3467 119.363 15.3267C122.018 10.6526 126.249 9.77047 128.79 9.69145C127.643 8.9899 126.371 8.51811 125.044 8.30237C122.426 7.91398 119.821 8.79395 117.293 10.9181C112.858 14.6421 111.438 20.1171 113.387 25.9454C115.838 33.2638 122.659 38.8376 129.608 39.2084C135.933 39.5376 141.86 36.1692 145.869 29.9613C150.519 22.7614 151.241 13.6875 147.708 6.84537C143.868 -0.598107 135.612 -6.6986 127.164 -8.32688C121.912 -9.33849 114.928 -8.93255 107.249 -2.29002C100.581 3.479 96.0842 10.1215 95.63 17.8788ZM70.9055 103.564C80.1198 103.083 85.5312 110.18 88.1295 115.047C88.9283 106.551 91.7261 99.895 96.003 96.351C92.3142 91.4816 81.9412 80.086 74.8796 81.3719L74.816 81.4311C71.678 84.5692 68.698 96.7789 70.9055 103.564ZM258.725 109.116C265.216 116.362 257.887 121.067 254.714 117.376C253.794 116.307 253.494 115.063 253.169 113.728C252.37 110.446 251.438 106.599 240.882 103.391C237.874 102.735 238.078 100.95 240.685 101.179C240.685 101.179 252.23 101.861 258.723 109.114L258.725 109.116ZM262.12 90.7815C256.14 89.1993 246.584 90.0968 239.702 93.845L239.704 93.8427C238.326 94.5976 238.958 95.5982 240.066 95.3723C245.89 94.2004 254.863 93.5531 260.202 98.4225C263.393 101.337 265.565 102.469 267.874 99.5197C270.16 96.5923 267.523 92.2079 262.12 90.7815ZM237.953 84.8325C237.953 84.8325 251.492 71.9513 261.966 71.7692C266.375 71.6485 268.065 78.3196 262.919 79.9281C261.326 80.4239 259.607 80.4832 257.639 80.5512C253.237 80.7005 247.604 80.8913 239.425 86.125C237.725 87.4439 236.959 85.7651 237.953 84.8325ZM194.034 86.4256C196.575 85.3065 199.548 83.9964 206.922 89.2806C208.855 90.9154 209.915 89.8906 208.46 88.304C208.46 88.304 202.248 81.1129 194.269 80.4985C186.288 79.8819 186.878 87.0115 190.881 87.2397C192.037 87.3078 192.998 86.882 194.034 86.4256ZM214.106 83.8341C212.737 79.1468 209.783 72.3616 204.196 70.3384C200.856 69.1271 199.202 67.9772 200.472 65.1661C201.723 62.3793 205.928 62.6294 209.028 66.0199C212.465 69.7722 215.462 77.0709 215.361 83.5137C215.342 84.8017 214.372 84.7228 214.111 83.8341L214.108 83.8319L214.106 83.8341ZM220.235 62.0896C221.504 65.5874 223.123 70.064 221.422 78.2426C220.88 80.018 222.491 80.0487 222.943 78.9559C222.943 78.9559 229.208 63.9877 226.055 55.7258C224.762 52.2301 218.769 53.1627 219.077 57.7447C219.173 59.1578 219.669 60.5273 220.235 62.0896ZM231.607 77.4461C232.232 75.2627 236.926 63.1736 241.409 57.1325C247.115 49.4519 253.07 58.5061 246.976 63.3887C238.596 70.672 232.642 79.4123 232.642 79.4123C231.359 80.6039 230.977 79.6295 231.607 77.4461ZM120.328 174.492L119.538 175.501C119.354 175.743 114.925 181.496 115.375 186.44L115.448 187.219L116.198 187.448C129.749 191.619 135.182 204.057 137.133 208.523C137.387 209.106 137.583 209.556 137.732 209.833C138.998 212.209 140.385 210.436 139.944 209.078C139.716 208.376 139.509 207.546 139.301 206.693C139.103 205.894 138.904 205.08 138.676 204.342C133.262 186.816 121.792 175.863 121.263 175.365L120.328 174.492ZM134.021 209.624C135.573 211.904 133.701 212.631 132.268 211.145C130.835 209.664 129.189 208.716 127.653 207.939C120.462 204.312 113.749 206.521 113.405 206.638L112.444 206.967L111.981 206.056C111.82 205.734 111.043 203.693 111.658 195.332L111.739 194.184L112.885 194.255C123.863 194.898 132.461 207.344 134.015 209.627L134.021 209.624ZM181.451 176.023L180.72 174.968L179.742 175.793C179.198 176.25 167.684 186.07 161.199 202.543L160.993 203.056C160.286 204.843 159.5 206.831 159.171 208.529C158.816 210.395 160.973 210.59 161.379 209.289C161.781 207.987 162.268 207.149 164.023 204.296C167.363 198.876 173.931 190.662 184.122 188.139L184.883 187.948L185 187.178C185.724 182.267 181.629 176.276 181.451 176.023ZM187.784 195.523L187.804 196.675C187.944 204.843 187.135 206.921 186.88 207.36L186.375 208.246L185.427 207.864C185.057 207.713 176.902 204.518 168.541 209.741C167.813 210.206 167.565 210.366 166.349 211.318C165.131 212.269 163.126 211.544 164.684 209.701C165.303 208.968 165.581 208.624 165.781 208.376C166.177 207.883 166.594 207.406 167.03 206.947C170.804 202.822 178.588 195.556 186.632 195.53L187.786 195.521L187.784 195.523ZM148.952 63.911C151.43 66.5197 155.802 65.4679 156.822 62.0179C157.321 60.3339 156.833 58.5128 155.559 57.3036C152.951 54.8259 148.638 56.1014 147.797 59.5994C147.426 61.1396 147.861 62.7624 148.952 63.911Z" fill="url(#paint0_linear_95_56)"/>
<defs>
<linearGradient id="paint0_linear_95_56" x1="257.331" y1="46.6694" x2="46.6693" y2="257.331" gradientUnits="userSpaceOnUse">
<stop stop-color="#241B1E"/>
<stop offset="1" stop-color="#2C2427"/>
</linearGradient>
</defs>
</svg>
